<?xml version="1.0" encoding="utf-8"?>
<!-- Generator: Adobe Illustrator 27.5.0, SVG Export Plug-In . SVG Version: 6.00 Build 0)  -->
<svg version="1.1" id="Layer_1" xmlns="http://www.w3.org/2000/svg" xmlns:xlink="http://www.w3.org/1999/xlink" x="0px" y="0px"
	 viewBox="0 0 450 450" style="enable-background:new 0 0 450 450;" xml:space="preserve">
<g>
	<g>
		<g>
			<g style="enable-background:new    ;">
				<g>
					<polygon style="fill:#A9B1D4;" points="292.427,210.336 296.439,247.944 312.244,257.128 312.184,221.818 					"/>
				</g>
				<g>
					<polygon style="fill:#8F9AD2;" points="312.184,221.818 312.244,257.128 328.153,247.944 332.069,210.336 					"/>
				</g>
				<g>
					<polygon style="fill:#D7D9EC;" points="292.427,210.336 312.184,221.818 332.069,210.336 312.313,198.855 					"/>
				</g>
				<g>
					<path style="fill:#3B261C;" d="M328.705,210.33l-1.873,1.084l-2.761,1.592l-0.085,0.057l-2.085,1.197l-2.943,1.705
						l-1.084,0.634l-0.056,0.028l-0.423,0.239l-0.563,0.324l-0.212,0.126l-0.31,0.169l-0.056,0.029c0,0,0,0-0.014,0l-1.718,1
						l-0.437,0.254l-1.859,1.085l-0.028,0.014l-0.521-0.31l-0.183-0.099l-1.493-0.873l-1.719-0.986l-1.296-0.76l-0.197-0.112
						l-1.93-1.127l-3.76-2.183l-2.676-1.549l-2.634-1.535l1.775-1.028l2.126-1.226l3.394-1.958l1.127-0.662l0.774-0.437l0.662-0.38
						l3.014-1.747l1.099-0.634l0.14-0.084l1.493-0.859l0.099-0.057l0.338-0.197l0.465-0.268l0.127,0.071l2.282,1.324l0.873,0.507
						l0.817,0.479l0.141,0.084l0.789,0.465l0.296,0.169l0.338,0.197l0.338,0.197l1.662,0.958l2.662,1.549l0.507,0.296l0.507,0.296
						l3.592,2.084L328.705,210.33z"/>
				</g>
			</g>
		</g>
		<g>
			<path style="fill:#042E8B;" d="M319.959,205.245c0,0.296-0.028,0.578-0.042,0.873c-0.127,1.831-0.394,3.676-0.845,5.465
				c-0.38,1.465-0.873,2.873-1.507,4.225c-0.042,0.099-0.098,0.183-0.141,0.282c-0.183,0.38-0.38,0.747-0.591,1.099l-0.212,0.126
				l-0.31,0.169l-0.056,0.029c0,0,0,0-0.014,0l-4.042,2.352l-0.521-0.31l0.183-0.775l0.536-2.366
				c-0.394-2.296-0.648-4.606-0.803-6.93c-0.056-0.887-0.113-1.775-0.127-2.662c-0.014-0.029,0-0.057,0-0.099
				c-0.014-0.042-0.014-0.099-0.014-0.141c-0.07-1.746-0.084-3.507-0.056-5.268c0-0.676,0.014-1.352,0.042-2.028
				c0.014-0.042,0-0.085,0-0.127c0.042-1.535,0.099-3.042,0.183-4.577c-0.014-0.014-0.014-0.028,0-0.042
				c0.085-1.902,0.197-3.817,0.31-5.704c0.127-2.113,0.253-4.211,0.366-6.324c0.282-4.676,0.549-9.352,0.831-14.043
				c0.028-0.563,0.07-1.126,0.113-1.704c-0.014-0.014-0.014-0.029,0-0.043c0.099-1.775,0.197-3.549,0.31-5.324
				c0.479-8.183,0.972-16.381,1.451-24.564c1.775,5.845,2.69,11.859,3.183,17.944c0,0-0.014,0,0,0.014
				c0,0.113,0.014,0.225,0.014,0.338c0.225,2.676,0.352,5.366,0.422,8.056c0.042,0.986,0.056,1.972,0.085,2.944
				c0.014,0.704,0.014,1.394,0.028,2.084v0.071c0.113,7.732,0.042,15.493,0.592,23.198c0.197,2.859,0.479,5.732,0.62,8.62
				C320.029,201.823,320.043,203.527,319.959,205.245z"/>
			<path style="fill:#1C4EA8;" d="M311.494,219.457l-1.493-0.873l-3.014-1.747c-1.24-3.141-2.296-6.831-2.648-7.662
				c-0.437-1.014-0.845-2.029-1.254-3.057c-1.211-3.042-2.296-6.141-3.169-9.31c-4.099-14.775-3.648-30.381-3.169-45.705
				c0.408-12.747,0.802-25.55,3.014-38.114c1.803,9.324,3.085,18.747,3.859,28.211c0.563,6.944,0.845,13.916,1.789,20.818
				c1.282,9.423,3.789,18.648,5.155,28.057c0.535,3.705,0.887,7.451,0.93,11.183c0.014,0.493,0,0.972,0,1.465
				C311.451,205.781,312.508,215.077,311.494,219.457z"/>
			<path style="fill:#043774;" d="M296.632,172.492c-1.826-7.196-1.882-14.883,0.199-22.01c0.575-1.967,1.31-3.897,1.651-5.918
				c0.535-3.18,0.048-6.524-1.372-9.419c-0.095-0.193-0.195-0.392-0.198-0.607c-0.015-1.079,2.352,1.587,2.596,1.994
				c0.734,1.226,1.161,2.626,1.436,4.02c0.237,1.197,0.39,2.411,0.457,3.63c0.17,3.097-0.213,6.194-0.35,9.292
				c-0.198,4.495,0.643,8.451,2.343,12.583c1.708,4.152,3.569,8.286,4.498,12.701c0.415,1.974,0.639,4.01,0.385,6.011
				c-0.162,1.279-0.372,5.696-1.943,5.981c-1.581,0.288-3.44-3.82-4.118-4.955C299.743,181.652,297.819,177.173,296.632,172.492z"/>
			<path style="fill:#1C4EA8;" d="M307.539,165.99c-0.039-13.647-0.069-27.386,2.397-40.808c1.24,2.044,1.436,4.532,1.6,6.917
				c1.488,21.644,2.976,43.289,4.464,64.934c0.219,3.193,0.443,6.387,0.546,9.587c0.051,1.577,1.001,8.205-0.135,9.292
				c-3.12,2.986-5.794-10.214-6.136-11.829C307.626,191.582,307.575,178.713,307.539,165.99z"/>
			<path style="fill:#2357B2;" d="M324.79,164.23c-0.197,2.746-0.606,5.451-1.057,8.155c-0.464,2.676-0.958,5.352-1.31,8.042
				c-0.141,0.986-0.268,1.972-0.352,2.958c-0.408,4.465-0.281,8.944-0.028,13.437c0.183,3.324,0.423,6.648,0.578,9.972
				c0.028,0.761,0.056,1.535,0.084,2.296c0.029,1.028-0.197,3.211-0.803,5.169l-2.943,1.705l-1.141,0.662l-0.423,0.239l-0.563,0.324
				l-0.212,0.126c-0.254-0.253-0.465-0.634-0.648-1.099c-1.071-2.732-0.888-8.465-1-10.676c-0.014-0.141-0.014-0.268-0.028-0.38
				c-0.084-0.986-0.169-1.972-0.239-2.972c-0.296-4.028-0.436-8.056-0.395-12.099c0.014-3.564,0.184-7.127,0.479-10.691
				c0.282-3.549,0.69-7.098,1.24-10.606c0.197-1.225,0.394-2.451,0.62-3.69c0.55-3.31,1.155-6.648,1.549-9.972
				c0.028-0.169,0.056-0.31,0.056-0.479c0-0.014,0-0.014,0-0.014c0.478-3.915,0.662-7.845,0.211-11.761
				c-0.761-6.732-3.381-13.141-4.423-19.845c3.493,1.183,4.902,5.282,5.845,8.845c1.366,5.127,2.732,10.282,3.69,15.493
				c0,0-0.014,0,0,0.014c0.535,2.916,0.958,5.845,1.169,8.775C324.945,158.85,324.973,161.541,324.79,164.23z"/>
			<path style="fill:#042E8B;" d="M310.678,211.807c-0.274-2.952,1.277-5.73,2.754-8.3c2.074-3.607,4.11-7.248,5.747-11.073
				c4.119-9.624,5.615-20.354,4.285-30.737c2.069,5.157,4.17,10.463,4.237,16.02c0.04,3.278-0.633,6.518-1.337,9.719
				c-1.247,5.675-2.612,11.364-4.966,16.676c-0.849,1.913-1.861,3.821-3.452,5.181c-1.591,1.361-3.878,2.077-5.831,1.325
				c-0.133-0.051-0.281-0.13-0.304-0.271c-0.023-0.14,0.21-0.258,0.26-0.125L310.678,211.807z"/>
			<path style="fill:#1C4EA8;" d="M306.648,214.584c-0.141,0.183-0.296,0.352-0.493,0.493c-0.338,0.254-0.761,0.437-1.296,0.521
				l-3.76-2.183l-2.676-1.549c-0.352-0.789-0.634-1.648-0.859-2.563c-0.944-3.662-0.93-8-0.831-10.381
				c0.197-4.62,0.901-9.352,0.802-13.958c-0.028-1.873-0.197-3.718-0.591-5.535c-0.183-0.944-0.437-1.873-0.761-2.789
				c-1.084-3.056-2.887-5.803-4.366-8.676c-6.535-12.775-6.183-28.832,0.93-41.297c1.211,8.056-2.69,16.212-1.676,24.31
				c0.521,4.155,2.268,7.944,4.212,11.691c0.394,0.718,0.789,1.45,1.169,2.183c1.986,3.704,3.986,7.423,4.986,11.465
				c0.789,3.183,0.93,6.479,0.944,9.775c0.014,2.07-0.014,4.141,0.028,6.197c0.056,3.296,0.324,6.536,1.324,9.662
				c0.141,0.465,0.408,1.071,0.704,1.789c0.169,0.395,0.366,0.831,0.549,1.282C306.381,208.245,308.113,212.57,306.648,214.584z"/>
			<path style="fill:#1C4EA8;" d="M329.297,187.597c-0.324,0.831-0.662,1.648-1,2.479c-1.324,3.183-2.746,6.352-3.718,9.634
				c-0.493,1.606-0.859,3.226-1.042,4.888c-0.028,0.282-0.043,0.634-0.014,1.028c0,0.507,0.042,1.113,0.112,1.76
				c0.141,1.676,0.395,3.732,0.437,5.62l-0.085,0.057l-2.085,1.197l-2.943,1.705l-1.141,0.662c-0.099-0.113-0.197-0.239-0.282-0.38
				c-0.042-0.042-0.071-0.099-0.113-0.155c-0.239-0.38-0.437-0.774-0.591-1.211c-0.634-1.69-0.634-3.747-0.296-5.761
				c0.042-0.268,0.085-0.535,0.141-0.802c0.267-1.324,0.662-2.62,1.099-3.761c0.056-0.155,0.112-0.31,0.183-0.464
				c0.183-0.493,0.38-0.944,0.577-1.367c0.423-0.901,0.901-1.76,1.408-2.62c0.662-1.112,1.381-2.198,2.099-3.282
				c0.817-1.253,1.634-2.521,2.352-3.845c0.07-0.127,0.141-0.268,0.211-0.394c1.465-2.775,2.479-5.803,3-8.901
				c0.676-3.86,0.591-7.846-0.268-11.677c-0.31-1.422-0.281-3.55,1.183-3.662c0.93-0.07,1.591,0.888,1.958,1.747
				C332.846,175.611,331.452,181.991,329.297,187.597z"/>
			<g>
				<path style="fill:#043774;" d="M314,215.288c-0.014,0.732,0.127,1.437,0.156,2.169c0.014,0.437-0.014,0.873-0.071,1.31
					l-1.887,1.099l-0.521-0.31l-1.676-0.972c-0.155-0.437-0.296-0.873-0.423-1.324c-0.14-0.451-0.239-0.943-0.408-1.394
					c-0.014-0.028-0.028-0.07-0.042-0.113c-0.198-0.493-0.409-0.986-0.592-1.479c-0.859-2.281-1.606-4.591-2.24-6.943
					c-0.239-0.887-0.465-1.789-0.648-2.69c-1.155-5.043-1.746-10.226-1.775-15.395c-0.014-2.577,0.113-5.169,0.718-7.69
					c1.24-5.183,4.479-9.07,8.113-12.676c-0.282,1.197-0.536,2.394-0.733,3.592c-1.564,9.38-0.972,18.972,0.451,28.395
					c0.31,2.056,0.648,4.099,1.028,6.127c0.296,1.605,0.648,3.465,0.719,5.296c0.042-0.057,0.113,0.042,0.127,0.113
					C314.353,213.372,314.029,214.33,314,215.288z"/>
				<path style="fill:#043774;" d="M328.383,144.955c-3.716,2.998-7.232,6.329-9.999,10.24c-2.914,4.12-4.548,8.805-5.686,13.69
					c2.204-2.184,4.553-4.264,6.691-6.467c2.341-2.413,4.063-5.127,5.563-8.158c0.759-1.534,1.434-3.109,2.02-4.717
					c0.284-0.778,0.547-1.563,0.789-2.355C327.893,146.754,328.057,145.219,328.383,144.955z"/>
			</g>
			<path style="fill:#3064C7;" d="M318.959,215.964l-1.141,0.662l-0.423,0.239l-0.563,0.324l-0.212,0.126l-0.31,0.169
				c-0.267-0.295-0.535-0.676-0.803-1.14c-0.437-0.747-0.887-1.677-1.324-2.662c-0.169-0.38-0.338-0.774-0.493-1.169
				c-0.972-2.324-1.803-4.761-2.225-5.873c0-0.014-0.014-0.042-0.014-0.056c-0.042-0.112-0.084-0.211-0.112-0.296
				c-0.423-1.057-0.845-2.099-1.254-3.169c-0.099-0.282-0.211-0.577-0.324-0.859c-1.451-3.817-2.789-7.69-4.014-11.592
				c-0.605-1.873-1.183-3.747-1.718-5.634c-0.592-2.056-1.155-4.141-1.69-6.211c-1.267-4.958-2.366-10-2.366-15.113
				c0-2.099,0.183-4.197,0.451-6.31c1.113-8.606,3.732-17.212,1.409-25.479c0.422,0.845,0.816,1.718,1.155,2.592
				c1.479,3.648,2.366,7.521,2.634,11.437c0.267,3.901-0.071,7.831,0.282,11.718c0.253,2.789,0.887,5.535,1.634,8.24
				c0.465,1.69,0.972,3.366,1.465,5.042c0.141,0.493,0.296,0.972,0.437,1.465c0.619,2.098,1.225,4.183,1.803,6.296
				c0.366,1.268,0.718,2.535,1.056,3.803c0.704,2.521,1.366,5.042,2.014,7.578c0.465,1.831,0.93,3.676,1.367,5.521
				c0.014,0.029,0.014,0.042,0.014,0.057c0.113,0.409,0.211,0.817,0.296,1.225c0,0.014,0,0.014,0,0.028
				c0.507,2.043,0.986,4.099,1.451,6.155c0.07,0.268,0.14,0.536,0.183,0.817c0.056,0.211,0.113,0.437,0.155,0.662
				c0.211,0.916,0.422,1.831,0.62,2.761c0.155,0.69,0.493,2.408,0.676,4.267C319.212,213.105,319.241,214.724,318.959,215.964z"/>
			<path style="fill:#1391EE;" d="M306.789,216.725l-1.93-1.127l-3.76-2.183c-0.747-1.479-1.268-3.056-1.381-4.719
				c-0.014-0.211-0.028-0.408-0.028-0.62c-0.014-1.324,0.197-2.661,0.437-3.971c0.735-4.126,1.279-7.633-0.504-11.58
				c-1.028-2.277-2.209-4.707-1.734-7.159c2.137,2.969,4.229,6.012,5.622,9.394c1.148,2.786,2.12,6.381,1.466,9.41
				c-0.258,1.194-0.899,2.103-1.044,3.356c-0.185,1.596-0.177,3.298,0.49,4.79c0.45,1,1.183,1.831,1.732,2.761
				c0.127,0.226,0.253,0.465,0.366,0.704C306.634,216.02,306.733,216.359,306.789,216.725z"/>
			<path style="fill:#1391EE;" d="M328.62,195.399c0.036,4.239-0.397,8.494-1.168,12.65c-0.056,0.324-0.127,0.831-0.225,1.422
				c-0.085,0.606-0.211,1.31-0.394,1.944l-2.761,1.592l-0.085,0.057c-0.732-0.775-1.183-2.113-1.239-2.831
				c-0.084-1.056,0.113-2.099,0.38-3.141c0.113-0.493,0.253-0.972,0.395-1.465c0.014-0.099,0.042-0.183,0.07-0.282
				c0.493-1.845,0.817-3.732,0.986-5.634c0.222-2.497,0.397-4.809-0.057-7.29c-0.5-2.731-1.365-5.377-2.019-8.072
				c-1.39-5.728-1.834-11.684-1.308-17.555c1.724,4.826,3.779,9.534,5.307,14.425C327.936,185.811,328.579,190.594,328.62,195.399z"
				/>
		</g>
		<path style="fill:#1391EE;" d="M312.226,219.852l-0.028,0.014l-0.521-0.31l-0.183-0.099l-1.493-0.873l-1.719-0.986
			c-0.676-3.112-0.662-6.295-0.338-9.451c0.183-1.76,0.437-3.507,0.719-5.253c0.31-2.014,0.634-4.028,0.859-6.043
			c0.605-5.746,0.31-11.564-0.549-17.268c0.253,0.916,0.605,1.817,0.915,2.732c2.014,5.986,1.789,12.395,1.944,18.747
			c0.042,1.831,0.113,3.662,0.282,5.479C312.522,210.992,313.465,215.556,312.226,219.852z"/>
	</g>
	<g>
		<g>
			<g>
				<rect x="162.545" y="86.836" style="fill:#A9B1D4;" width="0.979" height="78.639"/>
			</g>
			<g>
				<polygon style="fill:#A9B1D4;" points="145.62,175.247 145.62,138.426 122.671,151.675 122.67,109.857 123.649,109.857 
					123.649,149.98 146.598,136.731 146.599,175.247 				"/>
			</g>
			<g>
				<polygon style="fill:#A9B1D4;" points="180.566,155.072 180.565,116.92 200.849,105.21 200.849,64.722 201.827,64.722 
					201.828,105.774 181.543,117.485 181.544,155.072 				"/>
			</g>
		</g>
		<path style="fill:#CED3E8;" d="M218.891,55.019c0-10.717-7.524-15.061-16.806-9.703c-9.282,5.359-16.806,18.391-16.806,29.108
			s7.524,15.061,16.806,9.703C211.367,78.769,218.891,65.737,218.891,55.019z"/>
		<path style="fill:#EDBC0D;" d="M179.84,77.134c0-10.717-7.524-15.061-16.806-9.703c-9.281,5.359-16.806,18.391-16.806,29.108
			c0,10.717,7.524,15.061,16.806,9.703C172.316,100.883,179.84,87.851,179.84,77.134z"/>
		<path style="fill:#CED3E8;" d="M139.965,100.155c0-10.718-7.524-15.062-16.806-9.703c-9.282,5.359-16.806,18.391-16.805,29.108
			c0,10.718,7.524,15.062,16.806,9.703C132.442,123.904,139.966,110.872,139.965,100.155z"/>
		<g>
			<path style="fill:#A9B1D4;" d="M128.368,96.134c0,3.322-2.332,7.361-5.209,9.022c-2.877,1.661-5.209,0.315-5.209-3.007
				c0-3.322,2.332-7.361,5.209-9.022C126.036,91.465,128.368,92.812,128.368,96.134z"/>
			<g>
				<path style="fill:#A9B1D4;" d="M131.313,119.224v-9.927c0-4.339-3.075-6.115-6.833-3.945l-0.217,0.125l1.104,13.403l-2.208,4.18
					l-2.208-1.631l1.104-14.678l-0.217,0.125c-3.758,2.17-6.832,7.495-6.832,11.834v9.927L131.313,119.224z"/>
				<path style="fill:#A9B1D4;" d="M124.263,105.477l-2.208,1.275L124.263,105.477z"/>
			</g>
		</g>
		<g>
			<path style="fill:#A9B1D4;" d="M208.325,50.329c0,3.322-2.332,7.361-5.209,9.022c-2.877,1.661-5.209,0.315-5.209-3.008
				c0-3.322,2.332-7.361,5.209-9.022C205.993,45.66,208.325,47.007,208.325,50.329z"/>
			<g>
				<path style="fill:#A9B1D4;" d="M211.27,73.42l0-9.927c0-4.339-3.075-6.115-6.832-3.945l-0.217,0.125l1.104,13.404l-2.208,4.18
					l-2.208-1.631l1.104-14.678l-0.217,0.125c-3.758,2.17-6.832,7.495-6.832,11.834v9.927L211.27,73.42z"/>
				<path style="fill:#A9B1D4;" d="M204.221,59.672l-2.208,1.275L204.221,59.672z"/>
			</g>
		</g>
		<g>
			<path style="fill:#FFFFFF;" d="M168.868,72.443c0,3.322-2.332,7.361-5.209,9.022c-2.877,1.661-5.209,0.314-5.209-3.007
				c0-3.322,2.332-7.361,5.209-9.022C166.536,67.775,168.868,69.121,168.868,72.443z"/>
			<g>
				<path style="fill:#FFFFFF;" d="M171.813,95.534v-9.928c0-4.339-3.075-6.114-6.833-3.945l-0.217,0.125l1.104,13.403l-2.208,4.18
					l-2.208-1.631l1.104-14.678l-0.217,0.125c-3.758,2.169-6.833,7.495-6.832,11.834v9.928L171.813,95.534z"/>
				<path style="fill:#FFFFFF;" d="M164.763,81.787l-2.208,1.275L164.763,81.787z"/>
			</g>
		</g>
	</g>
	<g>
		<g style="enable-background:new    ;">
			<path style="fill:#DEE1EE;" d="M234.064,152.863l14.771,8.584c-6.044-3.513-14.415-3.018-23.654,2.316
				c-1.97,1.138-3.903,2.454-5.779,3.914l-14.771-8.584c1.876-1.46,3.809-2.776,5.779-3.914
				C219.649,149.845,228.02,149.35,234.064,152.863z"/>
			<g>
				<path style="fill:#CED3E8;" d="M170.922,152.299c23.336-13.473,42.977-6.363,48.48,15.378c1.876-1.46,3.809-2.776,5.779-3.914
					c18.361-10.601,33.293-2.088,33.352,19.011c0.056,19.765-12.961,43.567-29.704,55.213l-111.712,64.697
					c-18.362,10.601-33.293,2.092-33.353-19.007c-0.06-21.099,14.774-46.797,33.136-57.398c1.973-1.139,3.904-2.054,5.782-2.76
					C128.048,195.502,147.586,165.772,170.922,152.299z"/>
			</g>
			<path style="fill:#E7E8EC;" d="M122.683,223.518l-14.771-8.584c5.365-28.016,24.902-57.746,48.238-71.219l14.771,8.584
				C147.586,165.772,128.048,195.502,122.683,223.518z"/>
			<path style="fill:#E7E8EC;" d="M191.626,140.24l14.771,8.584c-9.065-5.268-21.619-4.525-35.475,3.475l-14.771-8.584
				C170.007,135.715,182.561,134.972,191.626,140.24z"/>
			<path style="fill:#DEE1EE;" d="M93.462,305l-14.771-8.584c-5.967-3.468-9.667-10.842-9.697-21.324
				c-0.06-21.099,14.774-46.797,33.136-57.398c1.973-1.139,3.905-2.054,5.782-2.76l14.771,8.584
				c-1.878,0.707-3.809,1.621-5.782,2.76c-18.362,10.601-33.196,36.299-33.136,57.398C83.795,294.158,87.495,301.532,93.462,305z"/>
		</g>
	</g>
	<polygon style="fill:#CED3E8;" points="338.291,357.859 267.717,398.606 168.34,341.229 238.914,300.482 	"/>
	<polygon style="fill:#E2E4EC;" points="297.447,357.965 244.961,406.978 125.423,364.307 177.909,315.294 	"/>
	<g>
		<g>
			<g style="enable-background:new    ;">
				<g style="enable-background:new    ;">
					<defs>
						<path id="SVGID_1_" style="enable-background:new    ;" d="M278.553,155.841l-1.979-0.469
							c-0.416-0.099-0.875-0.036-1.326,0.214l1.98,0.469C277.678,155.805,278.137,155.742,278.553,155.841z"/>
					</defs>
					<clipPath id="SVGID_00000102504047452655673220000013285030123340112055_">
						<use xlink:href="#SVGID_1_"  style="overflow:visible;"/>
					</clipPath>
					<g style="clip-path:url(#SVGID_00000102504047452655673220000013285030123340112055_);enable-background:new    ;">
						<path style="fill:#D7D9EC;" d="M278.553,155.841l-1.979-0.469c-0.416-0.099-0.875-0.036-1.326,0.214l1.98,0.469
							C277.678,155.805,278.137,155.742,278.553,155.841z"/>
					</g>
				</g>
				<g>
					<defs>
						<path id="SVGID_00000160168265718193264830000005232510892954132668_" d="M171.221,330.187l1.98,0.469
							c-0.697-0.165-1.273-0.782-1.491-1.721l-1.98-0.47C169.949,329.405,170.525,330.022,171.221,330.187z"/>
					</defs>
					<use xlink:href="#SVGID_00000160168265718193264830000005232510892954132668_"  style="overflow:visible;fill:#C2C8E3;"/>
					<clipPath id="SVGID_00000160180782316036944290000004474307046513909438_">
						<use xlink:href="#SVGID_00000160168265718193264830000005232510892954132668_"  style="overflow:visible;"/>
					</clipPath>
					<g style="clip-path:url(#SVGID_00000160180782316036944290000004474307046513909438_);enable-background:new    ;">
						<path style="fill:#C2C8E3;" d="M171.71,328.935l-1.98-0.47c0.219,0.94,0.795,1.556,1.491,1.721l1.98,0.469
							C172.505,330.491,171.928,329.874,171.71,328.935z"/>
					</g>
				</g>
				<g>
					<polygon style="fill:#E7E8EC;" points="277.227,156.055 275.247,155.585 148.342,225.93 150.321,226.399 					"/>
				</g>
				<g>
					<polygon style="fill:#C2C8E3;" points="148.77,230.328 146.79,229.859 169.73,328.466 171.71,328.935 					"/>
				</g>
				<g style="enable-background:new    ;">
					<defs>
						<path id="SVGID_00000159439425847524394680000018439804200054812061_" style="enable-background:new    ;" d="
							M150.321,226.399l-1.979-0.469c-1.208,0.669-1.902,2.426-1.552,3.929l1.98,0.469
							C148.42,228.826,149.114,227.068,150.321,226.399z"/>
					</defs>
					<clipPath id="SVGID_00000132794308034697154700000000378476503384818822_">
						<use xlink:href="#SVGID_00000159439425847524394680000018439804200054812061_"  style="overflow:visible;"/>
					</clipPath>
					<g style="clip-path:url(#SVGID_00000132794308034697154700000000378476503384818822_);enable-background:new    ;">
						<path style="fill:#D7D9EC;" d="M150.321,226.399l-1.979-0.469c-1.208,0.669-1.902,2.426-1.552,3.929l1.98,0.469
							C148.42,228.826,149.114,227.068,150.321,226.399z"/>
					</g>
				</g>
				<g>
					<path style="fill:#DEE1EE;" d="M150.321,226.399c-1.207,0.669-1.901,2.427-1.552,3.929l22.94,98.607
						c0.349,1.5,1.609,2.176,2.817,1.507l126.905-70.345c1.205-0.668,1.901-2.429,1.552-3.929l-22.94-98.607
						c-0.349-1.502-1.611-2.175-2.817-1.507L150.321,226.399z"/>
					
						<linearGradient id="SVGID_00000107555990465891397960000006667720611076280710_" gradientUnits="userSpaceOnUse" x1="-2418.1558" y1="163.5825" x2="-2457.2131" y2="297.3143" gradientTransform="matrix(-1 0 0 1 -2215.5459 0)">
						<stop  offset="0" style="stop-color:#1391EE"/>
						<stop  offset="1" style="stop-color:#042E8B"/>
					</linearGradient>
					<polygon style="fill:url(#SVGID_00000107555990465891397960000006667720611076280710_);" points="298.778,256.737 
						276.564,161.253 152.975,229.759 175.189,325.244 					"/>
				</g>
			</g>
		</g>
		<g>
			<g style="enable-background:new    ;">
				<g>
					<polygon style="fill:#DEE1EE;" points="376.732,300.523 381.001,300.91 301.792,254.879 301.777,256.964 					"/>
				</g>
				<g>
					<polygon style="fill:#DEE1EE;" points="301.777,256.964 301.792,254.879 173.358,329.03 177.625,328.643 					"/>
				</g>
				<g>
					<polygon style="fill:#E7E8EC;" points="177.625,328.643 252.58,372.202 376.732,300.523 301.777,256.964 					"/>
				</g>
				<g>
					<polygon style="fill:#CED3E8;" points="185.944,327.732 235.23,356.377 349.548,290.375 300.26,261.733 					"/>
				</g>
				<g>
					<polygon style="fill:#DEE1EE;" points="252.58,372.202 252.567,375.061 381.001,300.91 376.732,300.523 					"/>
				</g>
				<g>
					<polygon style="fill:#B4BCDF;" points="173.358,329.03 173.363,330.717 252.572,376.748 252.567,375.061 					"/>
				</g>
				<g>
					<polygon style="fill:#A9B1D4;" points="252.567,375.061 252.572,376.748 381.006,302.596 381.001,300.91 					"/>
				</g>
				<g>
					<polygon style="fill:#DEE1EE;" points="177.625,328.643 173.358,329.03 252.567,375.061 252.58,372.202 					"/>
				</g>
			</g>
		</g>
		<g>
			<g style="enable-background:new    ;">
				<g>
					<polygon style="fill:#B4BCDF;" points="303.681,265.969 303.678,266.652 297.357,270.326 297.359,269.642 					"/>
				</g>
				<g>
					<polygon style="fill:#A9B1D4;" points="297.359,269.642 297.357,270.326 293.883,268.32 293.885,267.637 					"/>
				</g>
				<g>
					<polygon style="fill:#E7E8EC;" points="303.681,265.969 297.359,269.642 293.885,267.637 300.207,263.963 					"/>
				</g>
			</g>
			<g style="enable-background:new    ;">
				<g>
					<polygon style="fill:#B4BCDF;" points="311.542,270.957 311.539,271.64 305.22,275.313 305.221,274.629 					"/>
				</g>
				<g>
					<polygon style="fill:#A9B1D4;" points="305.221,274.629 305.22,275.313 298.858,271.64 298.86,270.957 					"/>
				</g>
				<g>
					<polygon style="fill:#E7E8EC;" points="311.542,270.957 305.221,274.629 298.86,270.957 305.18,267.284 					"/>
				</g>
			</g>
			<g style="enable-background:new    ;">
				<g>
					<polygon style="fill:#B4BCDF;" points="295.708,270.602 295.707,271.285 289.387,274.957 289.389,274.274 					"/>
				</g>
				<g>
					<polygon style="fill:#A9B1D4;" points="289.389,274.274 289.387,274.957 285.913,272.952 285.915,272.268 					"/>
				</g>
				<g>
					<polygon style="fill:#E7E8EC;" points="295.708,270.602 289.389,274.274 285.915,272.268 292.234,268.596 					"/>
				</g>
			</g>
			<g style="enable-background:new    ;">
				<g>
					<polygon style="fill:#B4BCDF;" points="303.603,275.57 303.601,276.254 297.281,279.926 297.283,279.243 					"/>
				</g>
				<g>
					<polygon style="fill:#A9B1D4;" points="297.283,279.243 297.281,279.926 290.92,276.254 290.922,275.57 					"/>
				</g>
				<g>
					<polygon style="fill:#E7E8EC;" points="303.603,275.57 297.283,279.243 290.922,275.57 297.242,271.897 					"/>
				</g>
			</g>
			<g style="enable-background:new    ;">
				<g>
					<polygon style="fill:#B4BCDF;" points="287.738,275.233 287.736,275.917 281.416,279.59 281.419,278.906 					"/>
				</g>
				<g>
					<polygon style="fill:#A9B1D4;" points="281.419,278.906 281.416,279.59 277.942,277.584 277.944,276.9 					"/>
				</g>
				<g>
					<polygon style="fill:#E7E8EC;" points="287.738,275.233 281.419,278.906 277.944,276.9 284.264,273.228 					"/>
				</g>
			</g>
			<g style="enable-background:new    ;">
				<g>
					<polygon style="fill:#B4BCDF;" points="295.665,280.183 295.663,280.867 289.343,284.54 289.345,283.856 					"/>
				</g>
				<g>
					<polygon style="fill:#A9B1D4;" points="289.345,283.856 289.343,284.54 282.982,280.867 282.983,280.184 					"/>
				</g>
				<g>
					<polygon style="fill:#E7E8EC;" points="295.665,280.183 289.345,283.856 282.983,280.184 289.303,276.511 					"/>
				</g>
			</g>
			<g style="enable-background:new    ;">
				<g>
					<polygon style="fill:#B4BCDF;" points="279.768,279.865 279.766,280.549 273.446,284.221 273.448,283.538 					"/>
				</g>
				<g>
					<polygon style="fill:#A9B1D4;" points="273.448,283.538 273.446,284.221 269.972,282.215 269.974,281.532 					"/>
				</g>
				<g>
					<polygon style="fill:#E7E8EC;" points="279.768,279.865 273.448,283.538 269.974,281.532 276.294,277.859 					"/>
				</g>
			</g>
			<g style="enable-background:new    ;">
				<g>
					<polygon style="fill:#B4BCDF;" points="287.726,284.797 287.724,285.48 281.405,289.153 281.406,288.469 					"/>
				</g>
				<g>
					<polygon style="fill:#A9B1D4;" points="281.406,288.469 281.405,289.153 275.043,285.48 275.045,284.797 					"/>
				</g>
				<g>
					<polygon style="fill:#E7E8EC;" points="287.726,284.797 281.406,288.469 275.045,284.797 281.365,281.124 					"/>
				</g>
			</g>
			<g style="enable-background:new    ;">
				<g>
					<polygon style="fill:#B4BCDF;" points="271.798,284.497 271.796,285.18 265.476,288.853 265.478,288.169 					"/>
				</g>
				<g>
					<polygon style="fill:#A9B1D4;" points="265.478,288.169 265.476,288.853 262.002,286.847 262.004,286.164 					"/>
				</g>
				<g>
					<polygon style="fill:#E7E8EC;" points="271.798,284.497 265.478,288.169 262.004,286.164 268.324,282.491 					"/>
				</g>
			</g>
			<g style="enable-background:new    ;">
				<g>
					<polygon style="fill:#B4BCDF;" points="279.79,289.409 279.788,290.092 273.466,293.766 273.468,293.083 					"/>
				</g>
				<g>
					<polygon style="fill:#A9B1D4;" points="273.468,293.083 273.466,293.766 267.105,290.093 267.107,289.41 					"/>
				</g>
				<g>
					<polygon style="fill:#E7E8EC;" points="279.79,289.409 273.468,293.083 267.107,289.41 273.428,285.736 					"/>
				</g>
			</g>
			<g style="enable-background:new    ;">
				<g>
					<polygon style="fill:#B4BCDF;" points="263.828,289.129 263.825,289.812 257.506,293.485 257.508,292.802 					"/>
				</g>
				<g>
					<polygon style="fill:#A9B1D4;" points="257.508,292.802 257.506,293.485 254.032,291.479 254.033,290.796 					"/>
				</g>
				<g>
					<polygon style="fill:#E7E8EC;" points="263.828,289.129 257.508,292.802 254.033,290.796 260.353,287.123 					"/>
				</g>
			</g>
			<g style="enable-background:new    ;">
				<g>
					<polygon style="fill:#B4BCDF;" points="271.851,294.022 271.849,294.706 265.528,298.379 265.53,297.696 					"/>
				</g>
				<g>
					<polygon style="fill:#A9B1D4;" points="265.53,297.696 265.528,298.379 259.167,294.707 259.168,294.023 					"/>
				</g>
				<g>
					<polygon style="fill:#E7E8EC;" points="271.851,294.022 265.53,297.696 259.168,294.023 265.49,290.35 					"/>
				</g>
			</g>
			<g style="enable-background:new    ;">
				<g>
					<polygon style="fill:#B4BCDF;" points="255.857,293.761 255.855,294.444 249.536,298.117 249.537,297.433 					"/>
				</g>
				<g>
					<polygon style="fill:#A9B1D4;" points="249.537,297.433 249.536,298.117 246.061,296.111 246.063,295.427 					"/>
				</g>
				<g>
					<polygon style="fill:#E7E8EC;" points="255.857,293.761 249.537,297.433 246.063,295.427 252.383,291.755 					"/>
				</g>
			</g>
			<g style="enable-background:new    ;">
				<g>
					<polygon style="fill:#B4BCDF;" points="263.913,298.635 263.911,299.319 257.59,302.992 257.591,302.309 					"/>
				</g>
				<g>
					<polygon style="fill:#A9B1D4;" points="257.591,302.309 257.59,302.992 251.228,299.32 251.23,298.637 					"/>
				</g>
				<g>
					<polygon style="fill:#E7E8EC;" points="263.913,298.635 257.591,302.309 251.23,298.637 257.552,294.963 					"/>
				</g>
			</g>
			<g style="enable-background:new    ;">
				<g>
					<polygon style="fill:#B4BCDF;" points="247.887,298.392 247.885,299.076 241.563,302.75 241.565,302.066 					"/>
				</g>
				<g>
					<polygon style="fill:#A9B1D4;" points="241.565,302.066 241.563,302.75 238.089,300.744 238.091,300.06 					"/>
				</g>
				<g>
					<polygon style="fill:#E7E8EC;" points="247.887,298.392 241.565,302.066 238.091,300.06 244.413,296.387 					"/>
				</g>
			</g>
			<g style="enable-background:new    ;">
				<g>
					<polygon style="fill:#B4BCDF;" points="255.975,303.249 255.973,303.932 249.651,307.606 249.653,306.923 					"/>
				</g>
				<g>
					<polygon style="fill:#A9B1D4;" points="249.653,306.923 249.651,307.606 243.29,303.933 243.292,303.25 					"/>
				</g>
				<g>
					<polygon style="fill:#E7E8EC;" points="255.975,303.249 249.653,306.923 243.292,303.25 249.613,299.576 					"/>
				</g>
			</g>
			<g style="enable-background:new    ;">
				<g>
					<polygon style="fill:#B4BCDF;" points="239.917,303.024 239.915,303.708 233.593,307.381 233.595,306.698 					"/>
				</g>
				<g>
					<polygon style="fill:#A9B1D4;" points="233.595,306.698 233.593,307.381 230.119,305.376 230.121,304.692 					"/>
				</g>
				<g>
					<polygon style="fill:#E7E8EC;" points="239.917,303.024 233.595,306.698 230.121,304.692 236.442,301.019 					"/>
				</g>
			</g>
			<g style="enable-background:new    ;">
				<g>
					<polygon style="fill:#B4BCDF;" points="248.036,307.862 248.034,308.546 241.714,312.218 241.716,311.535 					"/>
				</g>
				<g>
					<polygon style="fill:#A9B1D4;" points="241.716,311.535 241.714,312.218 235.353,308.546 235.355,307.862 					"/>
				</g>
				<g>
					<polygon style="fill:#E7E8EC;" points="248.036,307.862 241.716,311.535 235.355,307.862 241.675,304.19 					"/>
				</g>
			</g>
			<g style="enable-background:new    ;">
				<g>
					<polygon style="fill:#B4BCDF;" points="231.946,307.656 231.945,308.34 225.623,312.013 225.625,311.33 					"/>
				</g>
				<g>
					<polygon style="fill:#A9B1D4;" points="225.625,311.33 225.623,312.013 222.148,310.007 222.151,309.324 					"/>
				</g>
				<g>
					<polygon style="fill:#E7E8EC;" points="231.946,307.656 225.625,311.33 222.151,309.324 228.472,305.65 					"/>
				</g>
			</g>
			<g style="enable-background:new    ;">
				<g>
					<polygon style="fill:#B4BCDF;" points="240.098,312.475 240.096,313.159 233.776,316.832 233.778,316.148 					"/>
				</g>
				<g>
					<polygon style="fill:#A9B1D4;" points="233.778,316.148 233.776,316.832 227.415,313.159 227.417,312.475 					"/>
				</g>
				<g>
					<polygon style="fill:#E7E8EC;" points="240.098,312.475 233.778,316.148 227.417,312.475 233.737,308.802 					"/>
				</g>
			</g>
			<g style="enable-background:new    ;">
				<g>
					<polygon style="fill:#B4BCDF;" points="223.976,312.288 223.974,312.971 217.652,316.645 217.654,315.961 					"/>
				</g>
				<g>
					<polygon style="fill:#A9B1D4;" points="217.654,315.961 217.652,316.645 214.178,314.639 214.18,313.956 					"/>
				</g>
				<g>
					<polygon style="fill:#E7E8EC;" points="223.976,312.288 217.654,315.961 214.18,313.956 220.502,310.282 					"/>
				</g>
			</g>
			<g style="enable-background:new    ;">
				<g>
					<polygon style="fill:#B4BCDF;" points="232.159,317.089 232.158,317.772 225.838,321.445 225.84,320.761 					"/>
				</g>
				<g>
					<polygon style="fill:#A9B1D4;" points="225.84,320.761 225.838,321.445 219.477,317.772 219.478,317.089 					"/>
				</g>
				<g>
					<polygon style="fill:#E7E8EC;" points="232.159,317.089 225.84,320.761 219.478,317.089 225.798,313.416 					"/>
				</g>
			</g>
			<g style="enable-background:new    ;">
				<g>
					<polygon style="fill:#B4BCDF;" points="216.004,316.921 216.002,317.604 209.682,321.277 209.684,320.593 					"/>
				</g>
				<g>
					<polygon style="fill:#A9B1D4;" points="209.684,320.593 209.682,321.277 206.208,319.271 206.21,318.588 					"/>
				</g>
				<g>
					<polygon style="fill:#E7E8EC;" points="216.004,316.921 209.684,320.593 206.21,318.588 212.53,314.915 					"/>
				</g>
			</g>
			<g style="enable-background:new    ;">
				<g>
					<polygon style="fill:#B4BCDF;" points="224.221,321.702 224.219,322.385 217.9,326.058 217.901,325.374 					"/>
				</g>
				<g>
					<polygon style="fill:#A9B1D4;" points="217.901,325.374 217.9,326.058 211.538,322.385 211.54,321.702 					"/>
				</g>
				<g>
					<polygon style="fill:#E7E8EC;" points="224.221,321.702 217.901,325.374 211.54,321.702 217.86,318.029 					"/>
				</g>
			</g>
			<g style="enable-background:new    ;">
				<g>
					<polygon style="fill:#B4BCDF;" points="208.034,321.553 208.032,322.236 201.712,325.909 201.714,325.225 					"/>
				</g>
				<g>
					<polygon style="fill:#A9B1D4;" points="201.714,325.225 201.712,325.909 198.238,323.903 198.24,323.219 					"/>
				</g>
				<g>
					<polygon style="fill:#E7E8EC;" points="208.034,321.553 201.714,325.225 198.24,323.219 204.56,319.547 					"/>
				</g>
			</g>
			<g style="enable-background:new    ;">
				<g>
					<polygon style="fill:#B4BCDF;" points="216.283,326.315 216.281,326.999 209.961,330.671 209.963,329.988 					"/>
				</g>
				<g>
					<polygon style="fill:#A9B1D4;" points="209.963,329.988 209.961,330.671 203.6,326.999 203.602,326.315 					"/>
				</g>
				<g>
					<polygon style="fill:#E7E8EC;" points="216.283,326.315 209.963,329.988 203.602,326.315 209.921,322.642 					"/>
				</g>
			</g>
			<g style="enable-background:new    ;">
				<g>
					<polygon style="fill:#B4BCDF;" points="200.095,326.166 200.094,326.849 193.774,330.522 193.775,329.838 					"/>
				</g>
				<g>
					<polygon style="fill:#A9B1D4;" points="193.775,329.838 193.774,330.522 190.299,328.516 190.301,327.833 					"/>
				</g>
				<g>
					<polygon style="fill:#E7E8EC;" points="200.095,326.166 193.775,329.838 190.301,327.833 196.621,324.16 					"/>
				</g>
			</g>
			<g style="enable-background:new    ;">
				<g>
					<polygon style="fill:#B4BCDF;" points="208.344,330.928 208.342,331.612 202.023,335.284 202.025,334.601 					"/>
				</g>
				<g>
					<polygon style="fill:#A9B1D4;" points="202.025,334.601 202.023,335.284 195.661,331.612 195.663,330.928 					"/>
				</g>
				<g>
					<polygon style="fill:#E7E8EC;" points="208.344,330.928 202.025,334.601 195.663,330.928 201.983,327.256 					"/>
				</g>
			</g>
			<g style="enable-background:new    ;">
				<g>
					<polygon style="fill:#B4BCDF;" points="319.174,275.774 319.172,276.458 303.151,285.768 303.153,285.084 					"/>
				</g>
				<g>
					<polygon style="fill:#A9B1D4;" points="303.153,285.084 303.151,285.768 296.79,282.095 296.792,281.412 					"/>
				</g>
				<g>
					<polygon style="fill:#E7E8EC;" points="319.174,275.774 303.153,285.084 296.792,281.412 312.812,272.101 					"/>
				</g>
			</g>
			<g style="enable-background:new    ;">
				<g>
					<polygon style="fill:#B4BCDF;" points="301.71,285.923 301.708,286.606 295.387,290.28 295.389,289.596 					"/>
				</g>
				<g>
					<polygon style="fill:#A9B1D4;" points="295.389,289.596 295.387,290.28 289.025,286.607 289.027,285.924 					"/>
				</g>
				<g>
					<polygon style="fill:#E7E8EC;" points="301.71,285.923 295.389,289.596 289.027,285.924 295.349,282.25 					"/>
				</g>
			</g>
			<g style="enable-background:new    ;">
				<g>
					<polygon style="fill:#B4BCDF;" points="293.772,290.536 293.77,291.219 287.448,294.893 287.45,294.21 					"/>
				</g>
				<g>
					<polygon style="fill:#A9B1D4;" points="287.45,294.21 287.448,294.893 281.087,291.22 281.089,290.537 					"/>
				</g>
				<g>
					<polygon style="fill:#E7E8EC;" points="293.772,290.536 287.45,294.21 281.089,290.537 287.411,286.863 					"/>
				</g>
			</g>
			<g style="enable-background:new    ;">
				<g>
					<polygon style="fill:#B4BCDF;" points="285.834,295.149 285.832,295.832 279.512,299.505 279.514,298.822 					"/>
				</g>
				<g>
					<polygon style="fill:#A9B1D4;" points="279.514,298.822 279.512,299.505 273.151,295.833 273.153,295.149 					"/>
				</g>
				<g>
					<polygon style="fill:#E7E8EC;" points="285.834,295.149 279.514,298.822 273.153,295.149 279.472,291.476 					"/>
				</g>
			</g>
			<g style="enable-background:new    ;">
				<g>
					<polygon style="fill:#B4BCDF;" points="277.895,299.763 277.893,300.446 271.573,304.119 271.576,303.435 					"/>
				</g>
				<g>
					<polygon style="fill:#A9B1D4;" points="271.576,303.435 271.573,304.119 265.212,300.446 265.214,299.763 					"/>
				</g>
				<g>
					<polygon style="fill:#E7E8EC;" points="277.895,299.763 271.576,303.435 265.214,299.763 271.534,296.09 					"/>
				</g>
			</g>
			<g style="enable-background:new    ;">
				<g>
					<polygon style="fill:#B4BCDF;" points="269.957,304.376 269.955,305.059 263.635,308.732 263.637,308.048 					"/>
				</g>
				<g>
					<polygon style="fill:#A9B1D4;" points="263.637,308.048 263.635,308.732 257.274,305.059 257.276,304.376 					"/>
				</g>
				<g>
					<polygon style="fill:#E7E8EC;" points="269.957,304.376 263.637,308.048 257.276,304.376 263.596,300.703 					"/>
				</g>
			</g>
			<g style="enable-background:new    ;">
				<g>
					<polygon style="fill:#B4BCDF;" points="262.018,308.989 262.016,309.672 255.697,313.345 255.699,312.662 					"/>
				</g>
				<g>
					<polygon style="fill:#A9B1D4;" points="255.699,312.662 255.697,313.345 249.335,309.673 249.337,308.989 					"/>
				</g>
				<g>
					<polygon style="fill:#E7E8EC;" points="262.018,308.989 255.699,312.662 249.337,308.989 255.657,305.316 					"/>
				</g>
			</g>
			<g style="enable-background:new    ;">
				<g>
					<polygon style="fill:#B4BCDF;" points="254.08,313.602 254.078,314.286 247.758,317.958 247.76,317.275 					"/>
				</g>
				<g>
					<polygon style="fill:#A9B1D4;" points="247.76,317.275 247.758,317.958 241.397,314.286 241.399,313.602 					"/>
				</g>
				<g>
					<polygon style="fill:#E7E8EC;" points="254.08,313.602 247.76,317.275 241.399,313.602 247.719,309.93 					"/>
				</g>
			</g>
			<g style="enable-background:new    ;">
				<g>
					<polygon style="fill:#B4BCDF;" points="246.142,318.215 246.14,318.899 239.82,322.572 239.822,321.888 					"/>
				</g>
				<g>
					<polygon style="fill:#A9B1D4;" points="239.822,321.888 239.82,322.572 233.459,318.899 233.461,318.215 					"/>
				</g>
				<g>
					<polygon style="fill:#E7E8EC;" points="246.142,318.215 239.822,321.888 233.461,318.215 239.781,314.543 					"/>
				</g>
			</g>
			<g style="enable-background:new    ;">
				<g>
					<polygon style="fill:#B4BCDF;" points="238.205,322.828 238.203,323.511 231.882,327.185 231.883,326.502 					"/>
				</g>
				<g>
					<polygon style="fill:#A9B1D4;" points="231.883,326.502 231.882,327.185 225.52,323.513 225.523,322.829 					"/>
				</g>
				<g>
					<polygon style="fill:#E7E8EC;" points="238.205,322.828 231.883,326.502 225.523,322.829 231.844,319.155 					"/>
				</g>
			</g>
			<g style="enable-background:new    ;">
				<g>
					<polygon style="fill:#B4BCDF;" points="230.267,327.441 230.265,328.124 223.943,331.798 223.945,331.115 					"/>
				</g>
				<g>
					<polygon style="fill:#A9B1D4;" points="223.945,331.115 223.943,331.798 217.582,328.125 217.584,327.442 					"/>
				</g>
				<g>
					<polygon style="fill:#E7E8EC;" points="230.267,327.441 223.945,331.115 217.584,327.442 223.906,323.768 					"/>
				</g>
			</g>
			<g style="enable-background:new    ;">
				<g>
					<polygon style="fill:#B4BCDF;" points="222.33,332.055 222.328,332.739 210.011,339.897 210.013,339.213 					"/>
				</g>
				<g>
					<polygon style="fill:#A9B1D4;" points="210.013,339.213 210.011,339.897 203.648,336.223 203.65,335.54 					"/>
				</g>
				<g>
					<polygon style="fill:#E7E8EC;" points="222.33,332.055 210.013,339.213 203.65,335.54 215.967,328.382 					"/>
				</g>
			</g>
			<g style="enable-background:new    ;">
				<g>
					<polygon style="fill:#B4BCDF;" points="319.192,285.063 319.19,285.747 313.296,289.172 313.298,288.489 					"/>
				</g>
				<g>
					<polygon style="fill:#A9B1D4;" points="313.298,288.489 313.296,289.172 306.935,285.5 306.936,284.816 					"/>
				</g>
				<g>
					<polygon style="fill:#A9B1D4;" points="327.14,289.652 327.138,290.335 319.19,285.747 319.192,285.063 					"/>
				</g>
				<g>
					<polygon style="fill:#B4BCDF;" points="335.149,284.997 335.147,285.681 327.138,290.335 327.14,289.652 					"/>
				</g>
				<g>
					<polygon style="fill:#E7E8EC;" points="335.149,284.997 327.14,289.652 319.192,285.063 313.298,288.489 306.936,284.816 
						320.84,276.736 					"/>
				</g>
				<g>
					<polygon style="fill:#B4BCDF;" points="325.448,290.635 325.446,291.318 319.126,294.991 319.129,294.307 					"/>
				</g>
				<g>
					<polygon style="fill:#A9B1D4;" points="319.129,294.307 319.126,294.991 312.763,291.317 312.766,290.634 					"/>
				</g>
				<g>
					<polygon style="fill:#E7E8EC;" points="325.448,290.635 319.129,294.307 312.766,290.634 319.085,286.961 					"/>
				</g>
			</g>
			<g style="enable-background:new    ;">
				<g>
					<polygon style="fill:#B4BCDF;" points="311.679,289.43 311.677,290.113 305.358,293.785 305.359,293.102 					"/>
				</g>
				<g>
					<polygon style="fill:#A9B1D4;" points="305.359,293.102 305.358,293.785 298.996,290.113 298.998,289.43 					"/>
				</g>
				<g>
					<polygon style="fill:#E7E8EC;" points="311.679,289.43 305.359,293.102 298.998,289.43 305.318,285.757 					"/>
				</g>
			</g>
			<g style="enable-background:new    ;">
				<g>
					<polygon style="fill:#B4BCDF;" points="303.741,294.043 303.739,294.726 297.419,298.399 297.421,297.715 					"/>
				</g>
				<g>
					<polygon style="fill:#A9B1D4;" points="297.421,297.715 297.419,298.399 291.058,294.726 291.06,294.043 					"/>
				</g>
				<g>
					<polygon style="fill:#E7E8EC;" points="303.741,294.043 297.421,297.715 291.06,294.043 297.379,290.37 					"/>
				</g>
			</g>
			<g style="enable-background:new    ;">
				<g>
					<polygon style="fill:#B4BCDF;" points="295.804,298.655 295.802,299.339 289.481,303.012 289.483,302.329 					"/>
				</g>
				<g>
					<polygon style="fill:#A9B1D4;" points="289.483,302.329 289.481,303.012 283.12,299.34 283.121,298.656 					"/>
				</g>
				<g>
					<polygon style="fill:#E7E8EC;" points="295.804,298.655 289.483,302.329 283.121,298.656 289.443,294.982 					"/>
				</g>
			</g>
			<g style="enable-background:new    ;">
				<g>
					<polygon style="fill:#B4BCDF;" points="287.866,303.268 287.864,303.952 281.542,307.625 281.544,306.942 					"/>
				</g>
				<g>
					<polygon style="fill:#A9B1D4;" points="281.544,306.942 281.542,307.625 275.181,303.953 275.183,303.269 					"/>
				</g>
				<g>
					<polygon style="fill:#E7E8EC;" points="287.866,303.268 281.544,306.942 275.183,303.269 281.505,299.595 					"/>
				</g>
			</g>
			<g style="enable-background:new    ;">
				<g>
					<polygon style="fill:#B4BCDF;" points="279.927,307.881 279.926,308.565 273.604,312.239 273.606,311.555 					"/>
				</g>
				<g>
					<polygon style="fill:#A9B1D4;" points="273.606,311.555 273.604,312.239 267.243,308.566 267.245,307.882 					"/>
				</g>
				<g>
					<polygon style="fill:#E7E8EC;" points="279.927,307.881 273.606,311.555 267.245,307.882 273.566,304.209 					"/>
				</g>
			</g>
			<g style="enable-background:new    ;">
				<g>
					<polygon style="fill:#B4BCDF;" points="271.989,312.495 271.987,313.178 265.666,316.852 265.668,316.168 					"/>
				</g>
				<g>
					<polygon style="fill:#A9B1D4;" points="265.668,316.168 265.666,316.852 259.305,313.179 259.306,312.496 					"/>
				</g>
				<g>
					<polygon style="fill:#E7E8EC;" points="271.989,312.495 265.668,316.168 259.306,312.496 265.628,308.822 					"/>
				</g>
			</g>
			<g style="enable-background:new    ;">
				<g>
					<polygon style="fill:#B4BCDF;" points="264.051,317.108 264.049,317.791 257.729,321.464 257.731,320.781 					"/>
				</g>
				<g>
					<polygon style="fill:#A9B1D4;" points="257.731,320.781 257.729,321.464 251.368,317.791 251.37,317.108 					"/>
				</g>
				<g>
					<polygon style="fill:#E7E8EC;" points="264.051,317.108 257.731,320.781 251.37,317.108 257.69,313.435 					"/>
				</g>
			</g>
			<g style="enable-background:new    ;">
				<g>
					<polygon style="fill:#B4BCDF;" points="256.112,321.721 256.111,322.405 249.791,326.078 249.793,325.394 					"/>
				</g>
				<g>
					<polygon style="fill:#A9B1D4;" points="249.793,325.394 249.791,326.078 243.43,322.405 243.431,321.721 					"/>
				</g>
				<g>
					<polygon style="fill:#E7E8EC;" points="256.112,321.721 249.793,325.394 243.431,321.721 249.751,318.049 					"/>
				</g>
			</g>
			<g style="enable-background:new    ;">
				<g>
					<polygon style="fill:#B4BCDF;" points="248.174,326.335 248.172,327.018 241.852,330.69 241.854,330.007 					"/>
				</g>
				<g>
					<polygon style="fill:#A9B1D4;" points="241.854,330.007 241.852,330.69 235.491,327.018 235.493,326.335 					"/>
				</g>
				<g>
					<polygon style="fill:#E7E8EC;" points="248.174,326.335 241.854,330.007 235.493,326.335 241.813,322.662 					"/>
				</g>
			</g>
			<g style="enable-background:new    ;">
				<g>
					<polygon style="fill:#B4BCDF;" points="240.236,330.948 240.234,331.631 233.914,335.304 233.916,334.621 					"/>
				</g>
				<g>
					<polygon style="fill:#A9B1D4;" points="233.916,334.621 233.914,335.304 227.553,331.631 227.555,330.948 					"/>
				</g>
				<g>
					<polygon style="fill:#E7E8EC;" points="240.236,330.948 233.916,334.621 227.555,330.948 233.874,327.275 					"/>
				</g>
			</g>
			<g style="enable-background:new    ;">
				<g>
					<polygon style="fill:#B4BCDF;" points="232.301,335.561 232.299,336.245 218.039,344.531 218.041,343.848 					"/>
				</g>
				<g>
					<polygon style="fill:#A9B1D4;" points="218.041,343.848 218.039,344.531 211.676,340.858 211.678,340.174 					"/>
				</g>
				<g>
					<polygon style="fill:#E7E8EC;" points="232.301,335.561 218.041,343.848 211.678,340.174 225.938,331.888 					"/>
				</g>
			</g>
			<g style="enable-background:new    ;">
				<g>
					<polygon style="fill:#B4BCDF;" points="317.685,295.146 317.684,295.829 311.362,299.503 311.364,298.82 					"/>
				</g>
				<g>
					<polygon style="fill:#A9B1D4;" points="311.364,298.82 311.362,299.503 304.999,295.83 305.001,295.146 					"/>
				</g>
				<g>
					<polygon style="fill:#E7E8EC;" points="317.685,295.146 311.364,298.82 305.001,295.146 311.322,291.472 					"/>
				</g>
			</g>
			<g style="enable-background:new    ;">
				<g>
					<polygon style="fill:#B4BCDF;" points="309.747,299.759 309.745,300.443 303.424,304.116 303.425,303.433 					"/>
				</g>
				<g>
					<polygon style="fill:#A9B1D4;" points="303.425,303.433 303.424,304.116 297.061,300.443 297.062,299.759 					"/>
				</g>
				<g>
					<polygon style="fill:#E7E8EC;" points="309.747,299.759 303.425,303.433 297.062,299.759 303.384,296.086 					"/>
				</g>
			</g>
			<g style="enable-background:new    ;">
				<g>
					<polygon style="fill:#B4BCDF;" points="301.809,304.372 301.807,305.056 295.487,308.729 295.489,308.045 					"/>
				</g>
				<g>
					<polygon style="fill:#A9B1D4;" points="295.489,308.045 295.487,308.729 289.124,305.055 289.126,304.372 					"/>
				</g>
				<g>
					<polygon style="fill:#E7E8EC;" points="301.809,304.372 295.489,308.045 289.126,304.372 295.446,300.699 					"/>
				</g>
			</g>
			<g style="enable-background:new    ;">
				<g>
					<polygon style="fill:#B4BCDF;" points="293.87,308.986 293.868,309.669 287.549,313.342 287.551,312.659 					"/>
				</g>
				<g>
					<polygon style="fill:#A9B1D4;" points="287.551,312.659 287.549,313.342 281.186,309.668 281.188,308.985 					"/>
				</g>
				<g>
					<polygon style="fill:#E7E8EC;" points="293.87,308.986 287.551,312.659 281.188,308.985 287.507,305.312 					"/>
				</g>
			</g>
			<g style="enable-background:new    ;">
				<g>
					<polygon style="fill:#B4BCDF;" points="285.932,313.599 285.93,314.282 279.61,317.955 279.612,317.272 					"/>
				</g>
				<g>
					<polygon style="fill:#A9B1D4;" points="279.612,317.272 279.61,317.955 273.247,314.281 273.249,313.598 					"/>
				</g>
				<g>
					<polygon style="fill:#E7E8EC;" points="285.932,313.599 279.612,317.272 273.249,313.598 279.569,309.925 					"/>
				</g>
			</g>
			<g style="enable-background:new    ;">
				<g>
					<polygon style="fill:#B4BCDF;" points="277.993,318.212 277.992,318.896 271.672,322.569 271.674,321.885 					"/>
				</g>
				<g>
					<polygon style="fill:#A9B1D4;" points="271.674,321.885 271.672,322.569 265.309,318.895 265.311,318.211 					"/>
				</g>
				<g>
					<polygon style="fill:#E7E8EC;" points="277.993,318.212 271.674,321.885 265.311,318.211 271.63,314.539 					"/>
				</g>
			</g>
			<g style="enable-background:new    ;">
				<g>
					<polygon style="fill:#B4BCDF;" points="270.055,322.826 270.053,323.509 263.734,327.182 263.735,326.498 					"/>
				</g>
				<g>
					<polygon style="fill:#A9B1D4;" points="263.735,326.498 263.734,327.182 257.371,323.508 257.372,322.824 					"/>
				</g>
				<g>
					<polygon style="fill:#E7E8EC;" points="270.055,322.826 263.735,326.498 257.372,322.824 263.692,319.152 					"/>
				</g>
			</g>
			<g style="enable-background:new    ;">
				<g>
					<polygon style="fill:#B4BCDF;" points="262.117,327.439 262.115,328.122 255.795,331.795 255.797,331.111 					"/>
				</g>
				<g>
					<polygon style="fill:#A9B1D4;" points="255.797,331.111 255.795,331.795 249.432,328.121 249.434,327.438 					"/>
				</g>
				<g>
					<polygon style="fill:#E7E8EC;" points="262.117,327.439 255.797,331.111 249.434,327.438 255.754,323.765 					"/>
				</g>
			</g>
			<g style="enable-background:new    ;">
				<g>
					<polygon style="fill:#B4BCDF;" points="254.18,332.051 254.178,332.735 247.857,336.408 247.859,335.725 					"/>
				</g>
				<g>
					<polygon style="fill:#A9B1D4;" points="247.859,335.725 247.857,336.408 241.494,332.735 241.496,332.051 					"/>
				</g>
				<g>
					<polygon style="fill:#E7E8EC;" points="254.18,332.051 247.859,335.725 241.496,332.051 247.817,328.378 					"/>
				</g>
			</g>
			<g style="enable-background:new    ;">
				<g>
					<polygon style="fill:#B4BCDF;" points="246.242,336.664 246.24,337.348 239.919,341.021 239.92,340.338 					"/>
				</g>
				<g>
					<polygon style="fill:#A9B1D4;" points="239.92,340.338 239.919,341.021 233.555,337.348 233.557,336.664 					"/>
				</g>
				<g>
					<polygon style="fill:#E7E8EC;" points="246.242,336.664 239.92,340.338 233.557,336.664 239.879,332.991 					"/>
				</g>
			</g>
			<g style="enable-background:new    ;">
				<g>
					<polygon style="fill:#B4BCDF;" points="238.303,341.278 238.302,341.961 225.985,349.119 225.986,348.436 					"/>
				</g>
				<g>
					<polygon style="fill:#A9B1D4;" points="225.986,348.436 225.985,349.119 219.624,345.446 219.625,344.763 					"/>
				</g>
				<g>
					<polygon style="fill:#E7E8EC;" points="238.303,341.278 225.986,348.436 219.625,344.763 231.942,337.605 					"/>
				</g>
			</g>
			<g style="enable-background:new    ;">
				<g>
					<polygon style="fill:#B4BCDF;" points="343.135,289.608 343.134,290.292 321.517,302.854 321.519,302.171 					"/>
				</g>
				<g>
					<polygon style="fill:#A9B1D4;" points="321.519,302.171 321.517,302.854 315.156,299.181 315.157,298.498 					"/>
				</g>
				<g>
					<polygon style="fill:#E7E8EC;" points="343.135,289.608 321.519,302.171 315.157,298.498 336.774,285.936 					"/>
				</g>
			</g>
			<g style="enable-background:new    ;">
				<g>
					<polygon style="fill:#B4BCDF;" points="319.902,303.11 319.9,303.794 309.611,309.773 309.613,309.09 					"/>
				</g>
				<g>
					<polygon style="fill:#A9B1D4;" points="309.613,309.09 309.611,309.773 303.25,306.1 303.251,305.417 					"/>
				</g>
				<g>
					<polygon style="fill:#E7E8EC;" points="319.902,303.11 309.613,309.09 303.251,305.417 313.541,299.438 					"/>
				</g>
			</g>
			<g style="enable-background:new    ;">
				<g>
					<polygon style="fill:#B4BCDF;" points="307.995,310.03 307.992,310.714 297.703,316.693 297.705,316.01 					"/>
				</g>
				<g>
					<polygon style="fill:#A9B1D4;" points="297.705,316.01 297.703,316.693 291.342,313.02 291.344,312.337 					"/>
				</g>
				<g>
					<polygon style="fill:#E7E8EC;" points="307.995,310.03 297.705,316.01 291.344,312.337 301.633,306.358 					"/>
				</g>
			</g>
			<g style="enable-background:new    ;">
				<g>
					<polygon style="fill:#B4BCDF;" points="295.787,317.124 295.785,317.808 272.044,331.604 272.047,330.921 					"/>
				</g>
				<g>
					<polygon style="fill:#B4BCDF;" points="272.047,330.921 272.044,331.604 265.725,335.277 265.727,334.594 					"/>
				</g>
				<g>
					<polygon style="fill:#A9B1D4;" points="265.727,334.594 265.725,335.277 259.363,331.604 259.366,330.921 					"/>
				</g>
				<g>
					<polygon style="fill:#E7E8EC;" points="295.787,317.124 272.047,330.921 265.727,334.594 259.366,330.921 289.426,313.452 
											"/>
				</g>
			</g>
			<g style="enable-background:new    ;">
				<g>
					<polygon style="fill:#B4BCDF;" points="264.108,335.534 264.106,336.218 257.786,339.89 257.788,339.207 					"/>
				</g>
				<g>
					<polygon style="fill:#A9B1D4;" points="257.788,339.207 257.786,339.89 251.425,336.218 251.427,335.534 					"/>
				</g>
				<g>
					<polygon style="fill:#E7E8EC;" points="264.108,335.534 257.788,339.207 251.427,335.534 257.747,331.862 					"/>
				</g>
			</g>
			<g style="enable-background:new    ;">
				<g>
					<polygon style="fill:#B4BCDF;" points="256.17,340.147 256.168,340.831 245.879,346.81 245.881,346.127 					"/>
				</g>
				<g>
					<polygon style="fill:#A9B1D4;" points="245.881,346.127 245.879,346.81 239.518,343.138 239.52,342.454 					"/>
				</g>
				<g>
					<polygon style="fill:#E7E8EC;" points="256.17,340.147 245.881,346.127 239.52,342.454 249.809,336.475 					"/>
				</g>
			</g>
			<g style="enable-background:new    ;">
				<g>
					<polygon style="fill:#B4BCDF;" points="244.264,347.066 244.262,347.75 233.971,353.73 233.973,353.047 					"/>
				</g>
				<g>
					<polygon style="fill:#A9B1D4;" points="233.973,353.047 233.971,353.73 227.61,350.057 227.612,349.374 					"/>
				</g>
				<g>
					<polygon style="fill:#E7E8EC;" points="244.264,347.066 233.973,353.047 227.612,349.374 237.903,343.393 					"/>
				</g>
			</g>
		</g>
		<path style="fill:#A9B1D4;" d="M296.872,342.756l26.105-15.072c1.481-0.855,1.481-2.241,0-3.097l-11.559-6.674
			c-1.481-0.855-3.882-0.855-5.363,0l-26.105,15.073c-1.481,0.855-1.481,2.241,0,3.096l11.559,6.674
			C292.99,343.611,295.391,343.611,296.872,342.756z"/>
	</g>
	<g>
		<g>
			<g style="enable-background:new    ;">
				<g>
					<polygon style="fill:#EFCE48;" points="223.296,217.686 221.336,216.547 264.084,191.867 266.044,193.006 					"/>
				</g>
				<g>
					<polygon style="fill:#F1AD00;" points="196.656,290.905 194.695,289.766 194.516,221.011 196.476,222.15 					"/>
				</g>
				<g>
					<polygon style="fill:#EFCE48;" points="196.476,222.15 194.516,221.011 218.518,207.153 220.478,208.293 					"/>
				</g>
				<g>
					<polygon style="fill:#EDBC0D;" points="220.478,208.293 223.296,217.686 266.044,193.006 266.206,250.751 196.656,290.905 
						196.476,222.15 					"/>
				</g>
			</g>
		</g>
		<g>
			<g style="enable-background:new    ;">
				<g>
					<polygon style="fill:#A9B1D4;" points="203.212,291.831 197.984,288.793 197.837,235.843 203.064,238.881 					"/>
				</g>
				<g>
					<polygon style="fill:#DFE8F0;" points="203.064,238.881 197.837,235.843 264.32,197.468 269.547,200.506 					"/>
				</g>
				<g>
					<polygon style="fill:#A8A7B6;" points="269.547,200.506 269.695,253.456 203.212,291.831 203.064,238.881 					"/>
				</g>
			</g>
		</g>
		<g>
			<polygon style="fill:#EDBC0D;" points="196.639,284.173 196.639,286.176 196.607,286.176 196.607,286.998 194.695,286.998 
				194.695,288.231 203.124,293.095 203.136,288.066 			"/>
		</g>
		<g>
			<g style="enable-background:new    ;">
				<g>
					<polygon style="fill:#F1AD00;" points="203.124,294.63 201.164,293.491 201.014,239.718 202.974,240.857 					"/>
				</g>
				<g>
					<polygon style="fill:#EFCE48;" points="202.974,240.857 201.014,239.718 270.564,199.563 272.524,200.702 					"/>
				</g>
				<g>
					<polygon style="fill:#EDBC0D;" points="272.524,200.702 272.674,254.476 203.124,294.63 202.974,240.857 					"/>
				</g>
			</g>
		</g>
		<g>
			<polygon style="fill:#F1AD00;" points="203.124,294.63 194.695,289.766 194.695,284.544 203.136,289.602 			"/>
		</g>
	</g>
	<g>
		<g>
			<g>
				<g style="enable-background:new    ;">
					<path style="fill:#F1D978;" d="M220.925,262.655c-0.125,0-0.247-0.018-0.365-0.053l-0.821-0.257
						c-0.092-0.03-0.175-0.066-0.252-0.111c-0.395-0.227-0.632-0.655-0.631-1.144v-0.038l0.023-0.304l0.381-0.649l1.427-2.842
						l0.248-0.146l14.207-8.256l1.096-1.704c0.478-0.744,1.132-1.38,1.84-1.791l1.358-0.789l2.205-2.287l0.124-0.309
						c1.383-3.449,3.871-6.473,6.656-8.089c1.382-0.804,2.725-1.212,3.992-1.212c0.928,0,1.783,0.222,2.54,0.659
						c1.805,1.042,2.799,3.151,2.799,5.939c0,2.487-0.798,5.242-2.248,7.756c-1.439,2.495-3.406,4.552-5.538,5.792
						c-1.382,0.802-2.724,1.21-3.99,1.21c-0.929,0-1.784-0.222-2.542-0.66c-0.167-0.096-0.329-0.204-0.485-0.321l-3.596,2.089
						c-0.29,0.169-0.606,0.258-0.911,0.258c-0.268,0-0.529-0.069-0.755-0.199c-0.235-0.135-0.424-0.332-0.558-0.57l-1.08,0.628
						c-0.214,0.124-0.45,0.188-0.685,0.188c-0.221,0-0.437-0.057-0.625-0.166l-0.6-0.346l-0.719,0.419
						c-0.171,0.1-0.469,0.385-0.744,0.862c-0.218,0.378-0.357,0.765-0.373,1.037l-0.03,0.526l-1.4,0.812
						c-0.211,0.123-0.449,0.188-0.685,0.188c-0.221,0-0.437-0.057-0.625-0.166c-0.21-0.122-0.379-0.302-0.49-0.523l-0.154-0.306
						l-0.459,0.267c-0.279,0.162-0.713,0.681-0.97,1.327l-0.126,0.315l-0.3,0.186l-0.177,0.102
						c-0.209,0.122-0.447,0.188-0.685,0.188c-0.191,0-0.374-0.041-0.544-0.123l-0.292-0.142c-0.063,0.041-0.156,0.114-0.267,0.231
						l-0.537,0.568c-0.203,0.205-0.551,0.407-0.966,0.407c-0.079,0-0.159-0.007-0.24-0.023l-0.203-0.038
						c-0.054,0.029-0.149,0.094-0.271,0.216l-1.004,1.007C221.687,262.456,221.34,262.655,220.925,262.655z M252.733,238.905
						c-0.231,0-0.532,0.1-0.846,0.283c-0.744,0.432-1.484,1.242-2.083,2.281c-0.602,1.044-0.934,2.096-0.934,2.963
						c0,0.54,0.137,0.941,0.365,1.073c0.071,0.041,0.156,0.061,0.261,0.061c0.231,0,0.532-0.101,0.846-0.283
						c0.744-0.431,1.483-1.241,2.082-2.28c0.603-1.046,0.934-2.098,0.934-2.963c0-0.541-0.136-0.941-0.365-1.074
						C252.923,238.924,252.838,238.905,252.733,238.905z"/>
					<path style="fill:#EDBC0D;" d="M254.463,234.18c-1.489-0.86-3.461-0.664-5.551,0.551c-2.602,1.51-4.934,4.355-6.239,7.607
						l-0.195,0.486l-0.527,0.546l-1.906,1.976l-1.476,0.857c-0.037,0.021-0.071,0.05-0.108,0.072
						c-0.392,0.245-0.763,0.57-1.078,0.958c-0.115,0.141-0.223,0.289-0.322,0.444l-1.224,1.902l-14.386,8.36
						c-0.003,0.002-0.006,0.004-0.009,0.005c-0.004,0.001-0.008,0.003-0.01,0.005l-0.298,0.597l-0.072,0.143l-0.834,1.66
						l-0.108,0.215l-0.227,0.388l-0.056,0.094c-0.001,0.012-0.002,0.027-0.002,0.043c0,0.133,0.054,0.244,0.145,0.296
						c0.016,0.009,0.033,0.017,0.052,0.023l0.812,0.254c0.041,0.012,0.081,0.013,0.12,0.008c0.101-0.012,0.191-0.065,0.223-0.096
						l1.003-1.008c0.133-0.134,0.266-0.233,0.396-0.316c0.204-0.13,0.397-0.194,0.567-0.187c0.027,0.001,0.058-0.005,0.083,0
						l0.303,0.059c0.031,0.005,0.061,0.002,0.09-0.001c0.102-0.011,0.182-0.062,0.211-0.088c0.004-0.003,0.01-0.007,0.012-0.009
						l0.165-0.176l0.37-0.392c0.057-0.06,0.114-0.116,0.171-0.167c0.4-0.356,0.786-0.489,1.06-0.357l0.262,0.128l0.201,0.098
						c0.021,0.01,0.047,0.007,0.07,0.011c0.077,0.015,0.162,0.008,0.245-0.041l0.163-0.095c0.312-0.782,0.89-1.535,1.408-1.836
						l0.676-0.393c0.26-0.151,0.497-0.184,0.683-0.109c0.02,0.008,0.041,0.011,0.059,0.022c0.088,0.049,0.157,0.127,0.206,0.225
						l0.226,0.445l0.13,0.257l0.001,0.001c0.024,0.049,0.059,0.09,0.103,0.114c0.093,0.054,0.215,0.044,0.333-0.02l0.944-0.548
						c0.014-0.25,0.087-0.537,0.2-0.835c0.08-0.21,0.178-0.423,0.3-0.637c0.074-0.128,0.153-0.248,0.234-0.363
						c0.246-0.346,0.517-0.619,0.781-0.795c0.028-0.019,0.057-0.044,0.085-0.061l0.765-0.446c0.288-0.166,0.551-0.197,0.744-0.086
						l0.532,0.307l0.259,0.15c0.093,0.054,0.215,0.044,0.333-0.02l1.594-0.929l0.729-0.424l-0.001,0.669
						c0,0.217,0.061,0.399,0.17,0.522c0.036,0.042,0.078,0.077,0.125,0.104c0.086,0.05,0.186,0.068,0.293,0.063
						c0.092-0.004,0.188-0.031,0.286-0.074c0.035-0.016,0.07-0.027,0.105-0.048l0.712-0.415l3.492-2.029l0.076,0.075
						c0.236,0.234,0.499,0.435,0.781,0.598c1.489,0.86,3.461,0.665,5.551-0.549c1.986-1.155,3.827-3.084,5.182-5.434
						c1.365-2.368,2.117-4.949,2.117-7.267C256.773,236.848,255.953,235.04,254.463,234.18z M253.272,243.491
						c-0.683,1.184-1.549,2.121-2.438,2.637c-0.795,0.462-1.537,0.542-2.088,0.224c-0.551-0.318-0.854-1-0.854-1.92
						c0-1.035,0.378-2.261,1.065-3.452c0.683-1.185,1.549-2.121,2.438-2.638c0.795-0.462,1.537-0.541,2.088-0.224
						c0.551,0.318,0.854,1,0.854,1.92C254.338,241.073,253.959,242.3,253.272,243.491z"/>
				</g>
			</g>
		</g>
	</g>
	<g>
		<g>
			<g>
				<g style="enable-background:new    ;">
					<g style="enable-background:new    ;">
						<defs>
							<path id="SVGID_00000110441661345737422810000005935764342080582784_" style="enable-background:new    ;" d="
								M98.111,327.581l0.114-40.052c-0.002,0.485,0.316,0.978,0.882,1.334l-0.113,40.052
								C98.428,328.559,98.11,328.066,98.111,327.581z"/>
						</defs>
						<use xlink:href="#SVGID_00000110441661345737422810000005935764342080582784_"  style="overflow:visible;fill:#F1AD00;"/>
						<clipPath id="SVGID_00000167389677630988025980000000323448260448227772_">
							<use xlink:href="#SVGID_00000110441661345737422810000005935764342080582784_"  style="overflow:visible;"/>
						</clipPath>
						<g style="clip-path:url(#SVGID_00000167389677630988025980000000323448260448227772_);enable-background:new    ;">
							<path style="fill:#F1AD00;" d="M99.107,288.862l-0.113,40.052c-0.566-0.356-0.883-0.849-0.882-1.334l0.114-40.052
								C98.223,288.014,98.541,288.506,99.107,288.862z"/>
						</g>
					</g>
					<g style="enable-background:new    ;">
						<defs>
							<path id="SVGID_00000075840954039840162720000010256556944753461677_" style="enable-background:new    ;" d="
								M103.877,291.616l-0.113,40.052c-1.59-0.918-3.18-1.836-4.77-2.754l0.113-40.052
								C100.696,289.78,102.286,290.698,103.877,291.616z"/>
						</defs>
						<use xlink:href="#SVGID_00000075840954039840162720000010256556944753461677_"  style="overflow:visible;fill:#F1AD00;"/>
						<clipPath id="SVGID_00000100384145076947775930000004217007673557781124_">
							<use xlink:href="#SVGID_00000075840954039840162720000010256556944753461677_"  style="overflow:visible;"/>
						</clipPath>
						<g style="clip-path:url(#SVGID_00000100384145076947775930000004217007673557781124_);enable-background:new    ;">
							<path style="fill:#F1AD00;" d="M103.877,291.616l-0.113,40.052c-1.59-0.918-3.18-1.836-4.77-2.754l0.113-40.052
								C100.696,289.78,102.286,290.698,103.877,291.616z"/>
						</g>
					</g>
					<g style="enable-background:new    ;">
						<path style="fill:#F1AD00;" d="M146.706,308.824l0.113-40.052c0,0.053-0.004,0.106-0.01,0.159
							c-0.002,0.017-0.006,0.035-0.008,0.052c-0.005,0.034-0.01,0.067-0.018,0.101c-0.016,0.074-0.039,0.148-0.067,0.22
							c-0.006,0.016-0.013,0.033-0.02,0.049c-0.028,0.067-0.06,0.132-0.097,0.197c-0.005,0.008-0.008,0.016-0.013,0.024
							c-0.042,0.07-0.09,0.138-0.143,0.203c-0.013,0.016-0.025,0.031-0.038,0.046c-0.056,0.066-0.115,0.131-0.182,0.193
							c-10.415,8.449-23.027,15.778-37.579,21.839c-0.109,0.047-0.223,0.087-0.34,0.124c-0.033,0.01-0.067,0.02-0.1,0.03
							c-0.092,0.027-0.187,0.051-0.283,0.073c-0.03,0.007-0.059,0.014-0.09,0.021c-0.124,0.025-0.249,0.046-0.377,0.063
							c-0.026,0.003-0.052,0.005-0.078,0.008c-0.105,0.013-0.212,0.022-0.32,0.029c-1.136,0.072-2.355-0.156-3.178-0.585
							l-0.113,40.052c0.808,0.421,1.999,0.649,3.119,0.588c0.02-0.001,0.039-0.002,0.059-0.003c0.108-0.007,0.214-0.016,0.319-0.029
							c0.027-0.003,0.053-0.005,0.079-0.008c0.128-0.017,0.254-0.038,0.377-0.063c0.03-0.006,0.06-0.014,0.09-0.02
							c0.096-0.022,0.191-0.046,0.283-0.073c0.034-0.01,0.068-0.02,0.101-0.03c0.117-0.037,0.231-0.077,0.34-0.124
							c14.553-6.06,27.164-13.389,37.579-21.839c0.067-0.062,0.126-0.127,0.182-0.193c0.013-0.016,0.026-0.031,0.038-0.046
							c0.053-0.066,0.101-0.134,0.143-0.203c0.005-0.008,0.008-0.016,0.013-0.024c0.037-0.064,0.069-0.13,0.097-0.196
							c0.007-0.017,0.014-0.032,0.02-0.049c0.028-0.072,0.05-0.145,0.067-0.22c0.001-0.004,0.003-0.008,0.004-0.012
							c0.006-0.029,0.01-0.059,0.014-0.089c0.002-0.017,0.006-0.034,0.008-0.051C146.702,308.93,146.705,308.877,146.706,308.824z"
							/>
						<path style="fill:#F1AD00;" d="M106.996,292.207l-0.113,40.052c-1.12,0.06-2.311-0.169-3.119-0.59l0.113-40.052
							C104.685,292.038,105.876,292.267,106.996,292.207z"/>
					</g>
					<g>
						<path style="fill:#F1D235;" d="M140.952,264.456c1.665,0.963,3.255,1.881,4.845,2.799c1.269,0.732,1.292,1.958,0.426,2.76
							c-10.415,8.449-23.027,15.778-37.579,21.839c-1.4,0.602-3.531,0.406-4.766-0.238c-1.59-0.918-3.18-1.836-4.77-2.754
							c-1.085-0.684-1.258-1.868-0.014-2.541c12.516-7.273,25.031-14.547,37.546-21.819
							C137.792,263.893,139.778,263.779,140.952,264.456z"/>
					</g>
				</g>
			</g>
			<path style="fill:#7480BA;" d="M142.567,251.937v16.816c0,0.579-0.378,1.156-1.136,1.599c-1.516,0.884-3.97,0.884-5.486,0
				c-0.76-0.443-1.138-1.026-1.136-1.607v-16.808c0-2.903-0.823-5.045-2.259-5.874c-1.436-0.829-3.702-0.472-6.218,0.981
				l-4.275,2.466c-6.697,3.867-12.354,13.667-12.354,21.4v16.816c0,0.579-0.38,1.158-1.138,1.599
				c-0.971,0.567-2.331,0.77-3.58,0.609c-0.697-0.089-1.362-0.292-1.904-0.609c-0.205-0.12-0.382-0.248-0.53-0.384
				c-0.406-0.372-0.608-0.797-0.605-1.221l-0.002-16.81c0-5.059,1.677-10.751,4.72-16.021c3.042-5.269,7.132-9.566,11.515-12.096
				l4.275-2.469c2.416-1.394,4.823-2.205,7.154-2.408c2.473-0.214,4.832,0.281,6.821,1.428c1.989,1.148,3.594,2.944,4.645,5.192
				C142.065,246.658,142.567,249.147,142.567,251.937z"/>
			<path style="fill:#ABABC9;" d="M134.694,246.969c-0.438-0.253-0.953-0.393-1.529-0.428c1.052,1.032,1.644,2.939,1.644,5.397
				v16.808c-0.003,0.581,0.376,1.163,1.136,1.607c0.304,0.177,0.645,0.317,1.009,0.423l0-17.932
				C136.953,249.939,136.13,247.798,134.694,246.969z"/>
			<path style="fill:#D5D5E7;" d="M136.953,240.327c-1.355-0.378-2.808-0.508-4.304-0.378c-2.332,0.201-4.738,1.012-7.156,2.406
				l-4.275,2.469c-4.383,2.53-8.471,6.827-11.515,12.098c-3.044,5.269-4.718,10.96-4.718,16.021v16.992
				c-0.697-0.089-1.362-0.292-1.904-0.609c-0.205-0.12-0.382-0.248-0.53-0.384v-17.005c0-5.062,1.677-10.751,4.718-16.021
				c3.044-5.271,7.134-9.566,11.517-12.096l4.275-2.469c2.416-1.396,4.824-2.205,7.154-2.408
				C132.655,238.731,134.982,239.211,136.953,240.327z"/>
			<path style="fill:#D19208;" d="M132.498,308.973c0-1.443-1.013-2.028-2.263-1.307c-1.25,0.722-2.263,2.477-2.263,3.92
				c0,0.951,0.441,1.526,1.099,1.604l0,4.109l2.328-1.344v-4.108C132.056,311.009,132.498,309.925,132.498,308.973z"/>
		</g>
	</g>
	<g>
		<g>
			<g style="enable-background:new    ;">
				<g style="enable-background:new    ;">
					<defs>
						<path id="SVGID_00000021814504369612452890000012419787779864571567_" style="enable-background:new    ;" d="
							M182.656,314.543l-4.587,42.07c-0.007,2.629-1.735,5.253-5.187,7.26c-6.945,4.036-18.248,4.038-25.242,0
							c-3.517-2.03-5.273-4.697-5.265-7.359l-4.337-42.095c-0.009,3.327,2.186,6.66,6.582,9.198c8.742,5.047,22.872,5.045,31.553,0
							C180.487,321.111,182.647,317.829,182.656,314.543z"/>
					</defs>
					<use xlink:href="#SVGID_00000021814504369612452890000012419787779864571567_"  style="overflow:visible;fill:#417ADC;"/>
					<clipPath id="SVGID_00000179648177171890498960000013863259960532515254_">
						<use xlink:href="#SVGID_00000021814504369612452890000012419787779864571567_"  style="overflow:visible;"/>
					</clipPath>
					<g style="clip-path:url(#SVGID_00000179648177171890498960000013863259960532515254_);enable-background:new    ;">
						<path style="fill:#2357B2;" d="M182.656,314.543l-4.587,42.07c-0.007,2.629-1.735,5.253-5.187,7.26
							c-3.358,1.951-7.735,2.96-12.151,3.024l0.252-39.5c5.52-0.081,10.991-1.341,15.189-3.78
							C180.487,321.111,182.647,317.829,182.656,314.543z"/>
						<path style="fill:#3064C7;" d="M160.984,327.398l-0.252,39.5c-4.717,0.069-9.479-0.939-13.091-3.024
							c-0.834-0.482-1.569-0.999-2.205-1.543l-3.571-40.641c0.795,0.681,1.713,1.327,2.756,1.929
							C149.135,326.225,155.087,327.485,160.984,327.398z"/>
						<path style="fill:#2357B2;" d="M141.864,321.689l3.571,40.641c-2.046-1.751-3.066-3.784-3.06-5.815l-4.337-42.095
							C138.031,316.958,139.307,319.5,141.864,321.689z"/>
					</g>
				</g>
				<g>
					<path style="fill:#1391EE;" d="M176.07,305.341c8.742,5.047,8.788,13.229,0.103,18.277c-8.681,5.045-22.81,5.047-31.553,0
						c-8.738-5.045-8.78-13.229-0.099-18.274C153.207,300.297,167.332,300.297,176.07,305.341z"/>
				</g>
				<g>
					<path style="fill:#10438E;" d="M179.641,316.77c-0.73,2.117-2.507,4.132-5.332,5.773c-7.658,4.449-20.122,4.455-27.837,0
						c-2.87-1.659-4.675-3.696-5.417-5.836c-1.256-3.612,0.521-7.494,5.326-10.291c7.664-4.449,20.128-4.449,27.838,0
						C179.092,309.231,180.903,313.147,179.641,316.77z"/>
				</g>
				<g>
					<path style="fill:#231B26;" d="M179.641,316.77c-0.73,2.117-2.507,4.132-5.332,5.773c-7.658,4.449-20.122,4.455-27.837,0
						c-2.87-1.659-4.675-3.696-5.417-5.836c0.73-2.111,2.507-4.126,5.326-5.762c7.664-4.455,20.128-4.455,27.838-0.006
						C177.088,312.598,178.894,314.636,179.641,316.77z"/>
				</g>
			</g>
		</g>
		<g>
			<g>
				<path style="fill:#3064C7;" d="M178.773,333.211c3.511,1.82,5.786,6.626,5.775,10.364c0.16,0.092,0.977-0.232,1.825-0.725
					c0.011-3.923-2.757-8.714-6.168-10.684C179.553,332.544,178.996,332.957,178.773,333.211z"/>
				<path style="fill:#3064C7;" d="M184.549,343.574c0.16,0.092,0.977-0.232,1.825-0.725c0.011-3.923-2.757-8.715-6.168-10.684
					c-0.848,0.493-1.536,1.042-1.536,1.226C181.92,335.267,184.559,339.836,184.549,343.574z"/>
			</g>
			<path style="fill:#888688;" d="M181.771,357.421c0.219,0.135,0.452,0.248,0.67,0.387c0.023,0.014,0.078,0.053,0.094,0.096
				c0.03,0.085-0.078,0.165-0.436,0.432c0.122-0.03,0.237-0.077,0.343-0.139c0.031-0.018,0.073-0.042,0.104-0.06
				c0.031-0.017,0.073-0.04,0.105-0.056l0.1-0.052c0.029-0.015,0.069-0.035,0.099-0.049l0.091-0.043
				c0.027-0.012,0.063-0.029,0.09-0.04l0.079-0.033c0.023-0.009,0.053-0.021,0.076-0.03l0.061-0.022
				c0.017-0.005,0.04-0.013,0.057-0.018l0.033-0.01c0.008-0.002,0.019-0.005,0.028-0.007c-0.008,0.001-0.032,0.004-0.041,0.005
				l-0.092,0.005c-0.057-0.002-0.132-0.006-0.189-0.011l-0.187-0.032c-0.236-0.063-0.459-0.122-0.834-0.338
				C181.983,357.38,181.895,357.387,181.771,357.421z"/>
			<path style="fill:#10438E;" d="M183.364,357.777c-0.519,0.066-1.092-0.24-1.337-0.371c-0.007-0.004-0.028,0-0.05,0.007
				c0.021-0.01,0.037-0.014,0.046-0.009c-2.455-1.417-4.91-2.835-7.365-4.253c-0.268-0.154-0.994,0.034-1.745,0.469l-0.383,0.223
				c-0.217,0.126-0.415,0.261-0.587,0.395c-0.344,0.271-0.583,0.544-0.661,0.754c-0.023,0.063-0.032,0.12-0.024,0.17
				c0.002,0.016,0.006,0.031,0.011,0.045c0.003,0.01,0.008,0.019,0.013,0.028l7.114,4.107c0,0,0.306,0.175,0.359,0.202
				c1.202,0.621,2.218,0.316,2.639-0.674c0.133-0.109,0.342-0.261,0.664-0.451c-0.102,0.059-0.214,0.101-0.331,0.131l0.372-0.216
				c-0.011,0.003-0.024,0.004-0.036,0.007c0.135-0.031,0.263-0.078,0.379-0.146C182.93,357.92,183.213,357.815,183.364,357.777z"/>
			<path style="fill:#888688;" d="M182.059,358.42l0.384-0.224c-0.106,0.062-0.221,0.108-0.343,0.139l-0.383,0.223
				C181.837,358.528,181.953,358.482,182.059,358.42z"/>
			<g>
				<path style="fill:#417ADC;" d="M182.098,331.337l-1.518-0.877c-1.949-1.125-3.898-2.251-5.848-3.376
					c-0.267-0.155-0.993,0.033-1.744,0.469l7.602,4.389C181.34,331.506,181.965,331.26,182.098,331.337z"/>
			</g>
			<g>
				<path style="fill:#417ADC;" d="M172.988,327.554l7.602,4.389c0.518-0.302,0.977-0.512,1.254-0.589l-7.479-4.318
					C174.013,327.07,173.506,327.253,172.988,327.554z"/>
				<path style="fill:#3064C7;" d="M174.365,327.036l7.479,4.318c0.124-0.034,0.212-0.041,0.254-0.017l-7.366-4.253
					C174.649,327.036,174.523,327.021,174.365,327.036z"/>
			</g>
			<g>
				<polygon style="fill:#10438E;" points="186.329,358.692 186.712,358.469 186.757,342.626 186.374,342.849 				"/>
			</g>
			<g>
				<polygon style="fill:#417ADC;" points="180.205,332.165 180.589,331.943 172.988,327.554 172.604,327.777 				"/>
			</g>
			<path style="fill:#10438E;" d="M184.594,343.588c-0.019-0.002-0.034-0.007-0.046-0.014l-0.028,9.97l-0.044,5.917
				c0.234,0.03,1.066-0.313,1.852-0.769l0.045-15.843C185.588,343.306,184.829,343.618,184.594,343.588z"/>
			<g>
				<path style="fill:#043774;" d="M186.757,342.626l-0.045,15.843c0.75-0.436,1.273-0.857,1.273-1.013l0.045-15.843
					C188.03,341.769,187.507,342.191,186.757,342.626z"/>
			</g>
			<g>
				<path style="fill:#3064C7;" d="M171.357,328.926l7.418,4.283c0.149-0.169,0.447-0.409,0.821-0.661l-7.578-4.376
					C171.674,328.443,171.435,328.716,171.357,328.926z"/>
				<path style="fill:#3064C7;" d="M172.018,328.172l7.578,4.375c0.187-0.126,0.393-0.256,0.61-0.382l-7.602-4.389
					C172.387,327.903,172.189,328.037,172.018,328.172z"/>
			</g>
			<g>
				<path style="fill:#417ADC;" d="M188.03,341.614c-0.021-0.653-0.027-0.85-0.075-1.159c-0.112-0.714-0.159-1.009-0.387-1.778
					c-0.277-0.939-0.728-1.971-1.268-2.907c-0.648-1.122-2.056-3.19-4.203-4.432c-0.133-0.077-0.758,0.169-1.508,0.606
					c3.411,1.969,6.179,6.761,6.167,10.683C187.507,342.191,188.03,341.769,188.03,341.614z"/>
			</g>
			<path style="fill:#417ADC;" d="M182.107,331.343c-0.143-0.083-0.768,0.163-1.518,0.6l-0.384,0.223
				c1.792,1.034,3.405,2.847,4.533,4.903l0.492,1.157l0.197-0.785c0.835,1.697,1.335,3.519,1.33,5.185
				c0.75-0.436,1.273-0.857,1.273-1.013C187.905,337.607,185.524,333.48,182.107,331.343z"/>
			<g>
				<path style="fill:#043774;" d="M186.712,358.469l-0.383,0.223c-0.005,1.948-0.696,3.319-1.808,3.965l0.383-0.223
					c2.223-1.32,3.001-2.576,3.081-4.977C187.985,357.612,187.462,358.034,186.712,358.469z"/>
				<path style="fill:#3064C7;" d="M181.845,331.354c0.124-0.033,0.212-0.041,0.253-0.017c0.151,0.087,0.347,0.216,0.495,0.309
					l0.474,0.341c0.143,0.11,0.327,0.265,0.467,0.38l0.448,0.409c0.134,0.129,0.305,0.309,0.435,0.441l0.417,0.467
					c0.123,0.144,0.279,0.344,0.398,0.491l0.378,0.513c0.11,0.157,0.25,0.373,0.357,0.533l0.334,0.55
					c0.096,0.167,0.216,0.394,0.309,0.563l0.283,0.575c0.08,0.174,0.179,0.409,0.255,0.584l0.226,0.59
					c0.063,0.177,0.137,0.416,0.195,0.595l0.163,0.594c0.044,0.178,0.091,0.418,0.13,0.597l0.094,0.587
					c0.023,0.177,0.04,0.414,0.057,0.591c0.005,0.171,0.013,0.399,0.018,0.57c0,0.155-0.523,0.577-1.273,1.012l-0.383,0.223
					c-0.785,0.457-1.544,0.769-1.779,0.739c0.008-0.449-0.073-0.896-0.07-1.342c0.001-0.142-0.022-0.863-0.034-1.089
					c-0.049-0.89,0.027-1.787,0.226-2.656c0.183-0.802,0.494-1.585,0.484-2.411c-0.008-0.659-0.151-1.288-0.448-1.879
					c-0.333-0.662-0.819-1.237-1.366-1.732c-0.255-0.23-0.524-0.444-0.802-0.643c-0.127-0.091-0.257-0.179-0.389-0.264
					C182.143,331.538,181.901,331.339,181.845,331.354z"/>
				<path style="fill:#1C4EA8;" d="M186.329,358.692L186.329,358.692c-1.507,0.779-1.825,0.726-1.825,0.726
					c0.017-5.281,0.029-10.563,0.045-15.843c0.012-3.737-2.631-8.308-5.878-10.183c-2.536-1.462-5.067-2.928-7.313-4.223
					c-0.019-0.032-0.028-0.069-0.028-0.109c-0.003,1.151-0.007,2.302-0.01,3.453c0,0,7.35,4.244,7.366,4.253
					c1.668,1.04,2.838,3.041,2.933,5c0.001,0.027-0.039,16.449-0.083,16.655c-0.146,0.694-0.519,1.159-1.036,1.349
					c-0.518,0.196-1.184,0.106-1.907-0.311c-2.532-1.462-5.064-2.928-7.31-4.223c-0.008-0.024-0.027-0.081-0.027-0.109l-0.01,3.456
					l6.606,3.814c0,0,1.08,0.621,1.224,0.685c0.267,0.119,0.943,0.373,0.962,0.378c0.14,0.043,0.282,0.078,0.434,0.109
					c0.496,0.104,0.828,0.102,0.903,0.1c0.144-0.005,0.296-0.01,0.465-0.026c0.017-0.001,0.291-0.039,0.295-0.039
					c0.161-0.027,0.667-0.164,0.68-0.168c0.002-0.001,0.145-0.049,0.166-0.056c0.057-0.021,0.143-0.051,0.2-0.073
					c0,0,0.301-0.122,0.351-0.144l0.866-0.435l0.126-0.072c0.628-0.365,1.137-0.972,1.449-1.774
					C186.21,360.266,186.326,359.538,186.329,358.692L186.329,358.692z"/>
			</g>
			<path style="fill:#3064C7;" d="M178.775,333.209l-7.418-4.283c-0.023,0.063-0.032,0.12-0.025,0.171
				c0.003,0.015,0.006,0.031,0.012,0.045c0.004,0.01,0.008,0.02,0.013,0.028l7.312,4.222
				C178.669,333.385,178.694,333.285,178.775,333.209z"/>
		</g>
	</g>
	<g>
		<path style="fill:#1C4EA8;" d="M144.966,199.087c2.083-1.202,3.07-0.723,3.07,3.925c0,4.847-0.877,7.47-2.992,8.691l-2.021,1.166
			l0-12.299c0-0.235,0.094-0.417,0.439-0.615L144.966,199.087z M145.092,209.778c0.502-0.29,0.956-1.221,0.956-5.833
			c0-3.237-0.392-3.428-0.971-3.093l-0.314,0.181v8.935L145.092,209.778z"/>
		<path style="fill:#1C4EA8;" d="M154.71,205.798c0.047,0.208-0.078,0.407-0.783,0.814c-0.235,0.136-0.548,0.316-1.002,0.543
			l-0.517-2.595l-2.115,1.221l-0.454,2.812c-0.047,0.28-0.094,0.434-0.799,0.841c-0.219,0.127-0.689,0.38-1.097,0.561l2.616-13.791
			c0.047-0.298,0.298-0.551,0.705-0.787c0.297-0.172,0.611-0.334,0.83-0.407L154.71,205.798z M152.079,202.94l-0.313-1.52
			c-0.172-0.877-0.313-2.116-0.407-3.183c-0.11,1.185-0.25,2.586-0.423,3.663l-0.313,1.881L152.079,202.94z"/>
		<path style="fill:#1C4EA8;" d="M159.63,190.622v1.52c0,0.289-0.094,0.416-0.313,0.542l-1.676,0.968l0,10.418
			c0,0.361-0.031,0.38-1.739,1.365v-10.78l-1.911,1.103v-1.519c0-0.253,0.094-0.416,0.313-0.543L159.63,190.622z"/>
		<path style="fill:#1C4EA8;" d="M165.646,199.485c0.047,0.208-0.078,0.407-0.783,0.814c-0.235,0.136-0.548,0.316-1.003,0.542
			l-0.517-2.595l-2.115,1.221l-0.454,2.812c-0.047,0.281-0.094,0.434-0.799,0.841c-0.219,0.126-0.689,0.38-1.096,0.56l2.615-13.791
			c0.047-0.298,0.298-0.552,0.705-0.787c0.297-0.172,0.611-0.335,0.83-0.407L165.646,199.485z M163.014,196.626l-0.313-1.52
			c-0.172-0.877-0.314-2.116-0.408-3.184c-0.109,1.185-0.251,2.587-0.423,3.663l-0.314,1.881L163.014,196.626z"/>
		<path style="fill:#1C4EA8;" d="M174.701,194.257c0.047,0.208-0.078,0.406-0.783,0.814c-0.235,0.136-0.548,0.316-1.002,0.542
			l-0.517-2.595l-2.115,1.221l-0.454,2.812c-0.047,0.28-0.094,0.434-0.799,0.841c-0.219,0.126-0.689,0.38-1.097,0.56l2.616-13.791
			c0.047-0.298,0.298-0.552,0.705-0.787c0.297-0.172,0.611-0.335,0.83-0.408L174.701,194.257z M172.069,191.399l-0.313-1.52
			c-0.172-0.877-0.313-2.116-0.407-3.183c-0.109,1.185-0.251,2.587-0.423,3.663l-0.314,1.881L172.069,191.399z"/>
		<path style="fill:#1C4EA8;" d="M179.558,180.003c0,0.488-0.125,0.977-0.251,1.356c-0.188-0.054-0.47-0.036-0.815,0.163
			c-0.893,0.516-1.723,1.827-1.723,5.787c0,3.166,0.361,3.808,1.238,3.301c0.486-0.28,0.924-0.624,1.222-0.977
			c0.125,0.217,0.235,0.606,0.235,1.04c0,0.85-0.72,1.755-1.911,2.442c-1.754,1.013-2.616,0.497-2.616-4.585
			c0-5.932,1.723-7.922,3.133-8.736C179.401,179.027,179.558,179.461,179.558,180.003z"/>
		<path style="fill:#1C4EA8;" d="M184.556,177.118c0,0.488-0.125,0.976-0.251,1.356c-0.188-0.054-0.47-0.036-0.814,0.163
			c-0.893,0.516-1.723,1.827-1.723,5.788c0,3.165,0.361,3.807,1.238,3.301c0.486-0.28,0.924-0.624,1.222-0.977
			c0.125,0.217,0.235,0.606,0.235,1.04c0,0.85-0.721,1.754-1.911,2.442c-1.754,1.013-2.616,0.497-2.616-4.585
			c0-5.932,1.723-7.922,3.133-8.736C184.399,176.141,184.556,176.575,184.556,177.118z"/>
		<path style="fill:#1C4EA8;" d="M189.147,184.452c0,1.682,0,1.79-0.297,1.962l-3.666,2.116v-12.299c0,0,0.015-0.371,0.313-0.543
			l3.759-2.17c0,1.61,0,1.791-0.313,1.972l-2.021,1.167v3.092l1.911-1.103c0,1.52,0,1.845-0.282,2.008l-1.629,0.941l0,4.142
			L189.147,184.452z"/>
		<path style="fill:#1C4EA8;" d="M190.557,178.012c-0.721-0.687-0.893-1.347-0.893-2.143c0-1.628,0.94-3.31,2.788-4.377
			c1.582-0.913,2.13-0.85,2.13-0.217c0,0.343-0.11,0.805-0.408,1.356c-0.172-0.045-0.768,0.082-1.363,0.425
			c-0.768,0.444-1.253,1.013-1.253,1.664c0,0.561,0.157,0.868,0.58,1.275l1.504,1.357c0.752,0.687,0.94,1.374,0.94,2.405
			c0,1.809-0.579,3.862-2.85,5.173c-1.41,0.814-2.052,0.606-2.052-0.027c0-0.398,0.125-1.049,0.391-1.673
			c0.329,0.154,0.893,0.082,1.457-0.244c0.877-0.507,1.159-1.212,1.159-2.08c0-0.615-0.157-0.995-0.705-1.528L190.557,178.012z"/>
		<path style="fill:#1C4EA8;" d="M195.946,174.9c-0.72-0.688-0.893-1.348-0.893-2.143c0-1.628,0.94-3.31,2.788-4.377
			c1.582-0.913,2.13-0.85,2.13-0.217c0,0.344-0.109,0.805-0.407,1.357c-0.173-0.045-0.768,0.081-1.363,0.425
			c-0.768,0.443-1.253,1.013-1.253,1.664c0,0.56,0.157,0.868,0.579,1.275l1.504,1.356c0.752,0.687,0.94,1.375,0.94,2.406
			c0,1.809-0.579,3.862-2.85,5.173c-1.41,0.814-2.052,0.605-2.052-0.027c0-0.398,0.125-1.049,0.391-1.673
			c0.329,0.154,0.893,0.082,1.457-0.244c0.877-0.507,1.159-1.212,1.159-2.08c0-0.615-0.157-0.995-0.705-1.528L195.946,174.9z"/>
	</g>
	<g>
		<path style="fill:#E7E8EC;" d="M281.062,248.67c-0.073-1.504,0.219-3.219,1.471-4.207c0.473-0.374,1.064-0.568,1.653-0.697
			c0.475-0.104,0.962-0.173,1.447-0.144c3.166,0.19,3.084,3.322,3.143,5.754c0.07,2.885-0.298,5.769-0.921,8.582
			c-0.921,4.154-2.39,8.163-3.856,12.157c-0.462,1.257-1.195,2.729-2.531,2.812c-1.046,0.065-1.948-0.851-2.233-1.859
			c-0.285-1.008-0.102-2.082,0.083-3.114c0.763-4.259,1.543-8.515,2.287-12.778C281.985,253.003,281.062,250.824,281.062,248.67z"/>
		<path style="fill:#1B151E;" d="M282.486,333.975c0.068,0.455-0.116,1.019-0.207,1.462c-0.059,0.285-0.086,0.576-0.099,0.866
			c-0.012,0.262-0.087,0.503-0.251,0.716c-0.14,0.181-0.34,0.259-0.556,0.314c-0.441,0.113-0.822,0.058-1.264,0.053
			c-0.339-0.005-0.634-0.034-0.73-0.408c-0.106-0.408,0.012-0.872,0.012-1.287c0-0.274-0.1-0.735,0-0.986
			c0.187-0.473,1.176-0.714,1.593-0.894c0.262-0.113,0.821-0.133,0.983-0.382C282.22,333.037,282.446,333.706,282.486,333.975z"/>
		<path style="fill:#E5A07D;" d="M276.785,327.964c-0.034,0.216-0.078,0.431-0.139,0.643c-0.2,0.7-0.48,1.377-0.833,2.013
			c-0.123,0.221-0.225,0.446-0.458,0.561c-0.27,0.133-0.585,0.177-0.869,0.273c-0.158,0.053-0.325,0.203-0.488,0.243
			c-0.146,0.035-0.256,0.042-0.388,0.114c-0.112,0.06-0.255,0.075-0.373,0.124c-0.234,0.096-0.438,0.257-0.49,0.517
			c-0.035,0.18,0.002,0.349,0.01,0.528c0.012,0.259,0.028,0.313,0.242,0.511c0.28,0.259,0.63,0.63,1.012,0.682
			c0.152,0.021,0.33-0.006,0.484-0.005c1.23,0.001,2.143-0.468,3.2-1.057c1.014-0.566,2.035-1.031,2.977-1.709
			c0.284-0.204,0.618-0.326,0.892-0.53c0.144-0.107,0.148-0.105,0.153-0.29c0.007-0.262-0.151-0.529-0.259-0.762
			c-0.223-0.482-0.291-0.771-0.291-1.297c0-0.541-0.019-1.107,0.071-1.64c0.144-0.851,0.399-1.721,0.716-2.52
			c0.167-0.422,0.38-0.813,0.532-1.244c0.197-0.556,0.464-1.11,0.625-1.673c0.174-0.614,0.302-1.241,0.392-1.873
			c0.177-1.251,0.203-2.521,0.124-3.781c-0.139-2.207-0.588-4.382-1.062-6.542c-0.118-0.536-0.291-1.116-0.256-1.67
			c0.022-0.363,0.18-0.695,0.209-1.056c0.095-1.142-0.496-2.275-0.569-3.408c-0.047-0.734-0.012-1.556-0.424-2.201
			c-0.736-1.152-2.447-1.314-3.676-0.718c-0.944,0.458-1.825,1.228-2.406,2.102c-0.567,0.849-0.617,2.1-0.671,3.102
			c-0.068,1.233-0.06,2.467,0.023,3.698c0.199,2.95,0.822,5.847,1.265,8.764c0.158,1.036,0.267,2.076,0.4,3.115
			c0.119,0.93,0.314,1.868,0.388,2.811c0.055,0.694,0.038,1.392,0.038,2.088C276.884,326.572,276.892,327.277,276.785,327.964z"/>
		<path style="fill:#231B26;" d="M281.963,330.365c0.086,0.062,0.169,0.147,0.248,0.259c0.377,0.534,0.582,1.271,0.684,1.908
			c0.124,0.775-0.037,1.546-0.606,2.117c-0.385,0.387-0.914,0.626-1.458,0.659c-0.703,0.044-1.369-0.235-2.044-0.382
			c-0.609-0.133-1.253-0.125-1.859,0.019c-0.27,0.064-0.526,0.103-0.793,0.192c-0.296,0.098-0.595,0.197-0.908,0.215
			c-0.644,0.037-1.333-0.197-1.919-0.45c-0.47-0.203-0.815-0.602-1.028-1.059c-0.244-0.523-0.431-1.044-0.381-1.633
			c0.011-0.127,0.049-0.251,0.096-0.37c0.063-0.157,0.126-0.336,0.236-0.464c0.462-0.531,1.232-0.512,1.875-0.429
			c0.392,0.05,0.848,0.11,1.22,0.247c-0.391,0.174-0.822,0.138-0.909,0.595c-0.251,1.324,1.592,1.425,2.401,1.281
			c0.888-0.159,1.726-0.552,2.484-1.033c0.598-0.38,1.008-1.028,1.563-1.484C281.242,330.242,281.627,330.124,281.963,330.365z"/>
		<path style="fill:#F1BCA4;" d="M267.081,338.885c0.739-0.863,1.366-1.798,1.942-2.768c0.585-0.987,0.248-2.541,0.107-3.601
			c-0.344-2.594-0.743-5.165-1.255-7.73c-0.348-1.744-0.651-3.506-0.728-5.289c-0.109-2.511,0.091-4.963-0.284-7.46
			c-0.121-0.799,0.023-1.539,0.038-2.337c0.013-0.603-0.049-1.209-0.077-1.812c-0.008-0.194,0.057-1.74-0.052-1.796l5.967,3.385
			c0.701,0.179,1.086,0.949,1.339,1.652c0.704,1.947,1.043,4.022,1.148,6.093c0.103,2.029,0.311,3.986,0.018,6.016
			c-0.259,1.779-0.558,3.551-0.857,5.323c-0.278,1.651-0.723,3.422-0.536,5.108c0.087,0.776,0.245,1.554,0.611,2.255
			c0.146,0.28,0.466,0.508,0.545,0.797c-0.597,0.151-0.938,0.691-1.408,1.033c-0.466,0.34-1.048,0.455-1.542,0.742
			c-0.387,0.225-0.731,0.516-1.068,0.809c-0.29,0.253-0.646,0.481-0.906,0.755c-0.289,0.305-0.5,0.655-0.826,0.934
			c-0.316,0.272-0.67,0.501-1.048,0.676c-0.529,0.244-1.173,0.375-1.677,0.083c-0.522-0.303-0.619-0.899-0.486-1.438
			C266.181,339.77,266.724,339.29,267.081,338.885z"/>
		<path style="fill:#1B151E;" d="M275.905,339.471c-0.052,1.185-0.019,2.394-0.121,3.575c-0.04,0.465-0.001,0.619-0.488,0.8
			c-0.723,0.268-1.982,0.361-2.448-0.402c-0.342-0.56-0.157-1.526-0.192-2.159c-0.022-0.406-0.22-1.098-0.082-1.484
			c0.152-0.425,0.96-0.295,1.422-0.407c0.365-0.088,0.71-0.236,1.089-0.246C275.373,339.139,275.819,339.361,275.905,339.471z"/>
		<path style="fill:#231B26;" d="M273.311,336.898c0.141-0.102,0.287-0.196,0.44-0.278c0.14-0.076,0.286-0.142,0.439-0.188
			c0.131-0.04,0.307-0.089,0.445-0.06c0.271,0.056,0.571,0.274,0.715,0.508c0.314,0.511,0.574,1.079,0.706,1.666
			c0.149,0.662,0.154,1.402-0.023,2.059c-0.166,0.614-0.779,1.058-1.387,1.177c-0.48,0.094-0.975,0.04-1.462-0.006
			c-0.649-0.062-1.232-0.049-1.85,0.17c-0.118,0.042-0.234,0.09-0.346,0.145c-0.347,0.169-0.706,0.315-1.071,0.444
			c-0.339,0.119-0.643,0.279-0.996,0.359c-0.945,0.215-1.966,0.032-2.84-0.362c-0.373-0.168-0.822-0.364-1.11-0.656
			c-0.345-0.351-0.644-0.761-0.76-1.246c-0.142-0.595-0.188-1.264,0.178-1.788c0.29-0.414,0.892-0.625,1.379-0.589
			c0.252,0.019,0.507,0.103,0.755,0.154c0.27,0.056,0.543,0.114,0.8,0.216c-0.185,0.429-0.602,0.75-0.77,1.212
			c-0.128,0.351,0.025,0.647,0.256,0.907c0.212,0.238,0.684,0.214,0.978,0.175c0.278-0.037,1.821-0.729,2.25-1.109
			c0.512-0.454,1.004-0.901,1.472-1.402C272.045,337.83,272.677,337.356,273.311,336.898z"/>
		<path style="fill:#F1EBE8;" d="M282.097,247.295c0.379,0.888,0.326,1.557-0.308,2.349c-0.614,0.769-1.299,1.24-2.221,1.584
			c-2.254,0.839-4.854,0.697-7.004-0.382c-0.224-0.112-0.447-0.236-0.693-0.286c-0.246-0.05-0.525-0.015-0.706,0.159
			c-0.034-0.555,0.456-0.992,0.87-1.279c0.466-0.322,1.033-0.26,1.583-0.223c1.194,0.08,2.403,0.064,3.574-0.18
			c1.026-0.213,2.027-0.606,2.878-1.226c0.371-0.271,0.758-0.49,0.901-0.961c0.014-0.045,0.116-0.547,0.027-0.568
			C281,246.281,281.74,246.46,282.097,247.295z"/>
		<path style="fill:#C2C8E3;" d="M286.323,256.547c0.783-2.309,1.193-4.742,1.22-7.182c0.019-1.866,0.539-4.637-1.642-5.671
			c-1.157-0.547-2.844-0.224-3.908,0.372c-0.348,0.195-1.716,0.844-2.036,0.979c-1.917,0.804-3.786,1.721-5.638,2.665
			c-1.03,0.524-2.109,0.968-3.158,1.454c-1.562,0.724-2.695,1.694-3.816,2.997c-0.919,1.068-1.764,2.206-2.188,3.564
			c-0.465,1.489-0.495,2.871-0.391,4.409c0.077,1.139,2.443,8.789,0.794,13.989c-0.537,1.694-0.505,2.62,1.056,4.059
			c0.813,0.75,1.836,0.39,2.802,0.293c1.038-0.104,1.986,0.201,3.056,0.143c2.829-0.152,6.107-0.38,8.613-1.832
			c0.972-0.563,1.816-1.398,1.857-2.583c0.03-0.883-0.392-1.333-0.852-2.007c-0.685-1.003-0.552-2.328-0.338-3.467
			c0.204-1.089,0.513-2.156,0.863-3.207c0.409-1.229,0.877-2.439,1.399-3.625c0.664-1.51,1.419-2.982,2.009-4.524
			C286.129,257.101,286.229,256.825,286.323,256.547z"/>
		<g>
			<path style="fill:#F1B599;" d="M249.506,251.893c0.094-2.138-0.63-5.783-1.933-6.743c-1.5-1.105-1.556-1.467-2.12-1.438
				c-1.444,0.074-0.568,1.045-0.761,1.339c-0.218,0.329-0.423,0.054-1.3,0.508c-0.713,0.369-0.157,0.673-0.293,0.929
				c-0.112,0.211-0.401,0.116-0.463,0.383c-0.023,0.097,0.043,0.197,0.006,0.298c-0.091,0.249-0.303,0.068-0.463,0.805
				c-0.153,0.699,1.61,0.421,2.216,1.902c0.152,0.369,0.234,0.762,0.354,1.143c0.146,0.463,0.349,0.908,0.602,1.322
				c0.214,0.351,0.689,1.028,0.774,1.215L249.506,251.893z"/>
		</g>
		<path style="fill:#E7E8EC;" d="M247.352,251.635c0.719-0.647,1.963-1.762,2.838-1.044c0.514,0.422,0.834,1.044,1.213,1.592
			c1.222,1.765,2.534,3.763,4.738,4.265c1.591,0.363,3.973-0.465,5.55-0.98c2.75-0.898,5.584-4.465,8.398-3.537
			c1.544,0.509,2.15,2.204,2.278,3.281c0.169,1.425-0.705,2.974-1.772,4.003c-0.995,0.96-2.31,1.419-3.574,1.849
			c-3.691,1.253-7.616,3.028-11.377,2.021c-2.099-0.562-4.533-1.698-5.972-3.343c-0.908-1.038-1.734-2.156-2.462-3.344
			c-0.393-0.641-0.736-1.31-1.092-1.976c-0.39-0.728-0.398-0.973,0.181-1.682C246.611,252.359,246.967,251.982,247.352,251.635z"/>
		<path style="fill:#F1BCA4;" d="M282.859,242.677c0.18,0.138,0.024,0.475-0.046,0.723c-0.156,0.559-0.089,1.164-0.01,1.731
			c0.034,0.24,0.147,0.49,0.138,0.726c-0.009,0.266-0.126,0.537-0.255,0.765c-0.608,1.072-2.076,1.391-3.171,1.686
			c-0.871,0.234-1.839,0.376-2.743,0.308c-0.396-0.03-0.857-0.09-1.204-0.292c-0.117-0.068-0.245-0.139-0.349-0.223
			c-0.411-0.337-0.335-1.02-0.378-1.484c-0.045-0.485-0.109-0.952-0.282-1.413c-0.226-0.603-0.847-1.023-0.847-1.023
			s3.726-0.627,5.539-0.954c0.985-0.178,1.971-0.355,2.958-0.533c0.133-0.024,0.297-0.082,0.432-0.078
			C282.742,242.619,282.811,242.641,282.859,242.677z"/>
		<path style="fill:#F1BCA4;" d="M272.314,231.057c-0.539,0.534-0.98,1.152-1.173,1.909c-0.365,1.432,0.015,2.923-0.286,4.353
			c-0.264,1.257,0.328,2.89,0.555,4.158c0.142,0.8,0.343,1.69,1.026,2.129c0.41,0.264,0.934,0.316,1.324,0.608
			c0.239,0.179,0.696,0.368,0.916,0.57c0.65,0.598,1.668,0.507,2.473,0.47c0.814-0.037,1.695-0.092,2.468-0.37
			c1.471-0.528,2.532-1.791,3.493-3.021C290.996,231.776,277.488,225.921,272.314,231.057z"/>
		<path style="fill:#231B26;" d="M285.66,230.699c-2.674-4.619-9.127-6.134-13.235-2.428c-1.874,1.691-2.351,3.972-0.77,5.929
			c0.427,0.529,0.595,0.895,0.817,1.51c0.173,0.48,0.016,0.96,0.495,1.313c0.829,0.61,1.411-0.442,2.273,0.07
			c1.747,1.038,0.294,4.125,1.578,5.549c1.28,1.42,4.205,1.261,5.786,0.491C286.822,241.078,287.827,234.442,285.66,230.699z"/>
		<path style="fill:#3064C7;" d="M264.296,289.35c-0.591-10.135,1.714-17.335,1.714-17.335s11.091,3.472,15.741-0.523
			c0.98,1.465,1.785,3.037,2.021,3.636c0.944,2.395,1.138,4.577,1.286,7.361c0.22,4.142-0.16,8.573-0.474,12.705
			c-0.326,4.281-0.262,16.908-1.551,17.211c-0.993,0.234-4.237,0.16-4.237,0.16s-0.964-6.09-1.222-6.734
			c-0.357,1.598-0.149,3.34-0.293,4.967c-0.047,0.525-0.053,1.06-0.186,1.573c-0.147,0.564-0.547,0.701-1.103,0.786
			c-0.543,0.082-4.978,0.887-8.336,0.029c-0.831-0.212-1.257-0.727-1.395-1.59C266.119,310.717,264.49,292.677,264.296,289.35z"/>
		<path style="fill:#231B26;" d="M274.496,236.31c1.705,1.797,1.876,4.955,0.799,7.186c-1.077,2.23-2.852,4.598-4.864,6.042
			c1.364-0.062,1.924,2.063,3.258,2.36c0.741,0.164,1.46-0.301,2.077-0.743c0.845-0.606,1.709-1.231,2.29-2.094
			c0.621-0.923,0.867-2.042,1.053-3.137c0.338-1.986,0.52-3.999,0.545-6.013c0.021-1.685-0.078-3.414-0.741-4.963
			c-0.662-1.55-1.985-2.904-3.644-3.204c-1.359-0.245-3.423,0.535-3.427,2.198C271.839,235.381,273.635,235.401,274.496,236.31z"/>
		<g>
			<path style="fill:#F1BCA4;" d="M275.764,236.322c1.307,0.125,1.372,1.783,0.282,2.877c-0.319,0.319-0.831,0.565-1.216,0.797
				c-2.64,1.592-2.871-0.637-2.025-1.188C274.772,237.529,274.121,236.164,275.764,236.322z"/>
			<path style="fill:#E5A07D;" d="M274.975,238.695c0.17-0.111,1.787-0.738,0.88-1.497c-0.25-0.209-0.6-0.016-0.691,0.271
				c-0.048,0.149-0.026,0.314-0.073,0.462c-0.029,0.089-0.081,0.167-0.141,0.237c-0.166,0.192-0.645,0.323-0.609,0.649
				C274.373,239.105,274.877,238.76,274.975,238.695z"/>
		</g>
		<path style="fill:#231B26;" d="M286.21,248.122c-0.207,1.927-0.567,3.868-0.571,5.797c-0.003,1.458,0.078,2.966-0.469,4.318
			c-0.552,1.365-2.356,2.238-3.647,2.815c-0.96,0.43-2.033,0.67-3.07,0.497c-1.138-0.19-2.431-1.015-2.591-2.24
			c-0.468-3.591,1.198-7.065,2.076-10.578c0.682-2.73,0.892-5.574,0.669-8.379c-0.133-1.662-0.409-3.383,0.128-4.962
			c0.541-1.589,1.93-2.862,3.561-3.261c1.166-0.286,2.066-3.045,2.952-2.077c0.824,0.9,2.102,3.177,1.836,8.877
			c-0.103,2.206-0.792,4.313-0.737,6.5C286.369,246.323,286.306,247.221,286.21,248.122z"/>
	</g>
</g>
</svg>
